<?xml version="1.0" encoding="UTF-8" standalone="no"?>
<svg width="22px" height="16px" viewBox="0 0 22 16" version="1.1" xmlns="http://www.w3.org/2000/svg" xmlns:xlink="http://www.w3.org/1999/xlink">
    <!-- Generator: Sketch 47.1 (45422) - http://www.bohemiancoding.com/sketch -->
    <title>mail</title>
    <desc>Created with Sketch.</desc>
    <defs></defs>
    <g id="Page-1" stroke="none" stroke-width="1" fill="none" fill-rule="evenodd" opacity="0.696954257">
        <g id="Mobile-Copy" transform="translate(-189.000000, -10813.000000)" fill-rule="nonzero" fill="#FFFFFF">
            <g id="mail" transform="translate(189.000000, 10813.000000)">
                <path d="M2.25,0.247265309 C1.016475,0.247265309 1.25e-07,1.25265149 1.25e-07,2.47271985 L1.25e-07,13.3527322 C1.25e-07,14.5728006 1.016475,15.5781868 2.25,15.5781868 L19.75,15.5781868 C20.983525,15.5781868 22,14.5728006 22,13.3527322 L22,2.47271985 C22,1.25265149 20.983525,0.247265309 19.75,0.247265309 L2.25,0.247265309 Z M2.25,1.73090167 L19.75,1.73090167 C20.1784748,1.73090167 20.5,2.04891913 20.5,2.47271985 L20.5,13.3527322 C20.5,13.7765329 20.1784748,14.0945504 19.75,14.0945504 L2.25,14.0945504 C1.82152525,14.0945504 1.5,13.7765329 1.5,13.3527322 L1.5,2.47271985 C1.5,2.04891913 1.82152525,1.73090167 2.25,1.73090167 Z M18.609375,3.19134385 C18.4238924,3.20070949 18.2485185,3.27780513 18.1172,3.40770749 L11.52345,9.42727767 C11.2033752,9.71938095 10.7797752,9.71898531 10.46095,9.42727767 L3.8828,3.40770749 C3.73538781,3.27050773 3.53817057,3.19806033 3.33595,3.20682313 C3.03133011,3.21802279 2.7638597,3.41045175 2.65926988,3.693654 C2.55468007,3.97685625 2.63377534,4.29449857 2.859375,4.49726531 L6.6953,8.00545949 L2.875,11.3050173 C2.6714358,11.4799993 2.57803868,11.7493054 2.63014917,12.011033 C2.68225966,12.2727606 2.8719183,12.4869326 3.12736012,12.5725086 C3.38280194,12.6580846 3.66501017,12.6019935 3.8672,12.4254595 L7.8047,9.01774458 L9.4453,10.5168108 C10.312525,11.3101359 11.67175,11.3161693 12.53905,10.5244762 L14.1875,9.0176704 L18.1328,12.4253853 C18.3349898,12.6019193 18.6171981,12.6580104 18.8726399,12.5724344 C19.1280817,12.4868584 19.3177403,12.2726864 19.3698508,12.0109588 C19.4219613,11.7492313 19.3285642,11.4799251 19.125,11.3049431 L15.296875,8.00538531 L19.1328,4.49719113 C19.3773893,4.29126959 19.4622724,3.95416796 19.3439003,3.65883495 C19.2255282,3.36350194 18.9301768,3.17549471 18.609375,3.19126967 L18.609375,3.19134385 Z" id="Shape"></path>
            </g>
        </g>
    </g>
</svg>