<?xml version="1.0" encoding="UTF-8" standalone="no"?>
<svg width="19px" height="24px" viewBox="0 0 19 24" version="1.1" xmlns="http://www.w3.org/2000/svg" xmlns:xlink="http://www.w3.org/1999/xlink">
    <!-- Generator: Sketch 47.1 (45422) - http://www.bohemiancoding.com/sketch -->
    <title>location</title>
    <desc>Created with Sketch.</desc>
    <defs></defs>
    <g id="Page-1" stroke="none" stroke-width="1" fill="none" fill-rule="evenodd" opacity="0.696954257">
        <g id="Mobile-Copy" transform="translate(-191.000000, -10875.000000)" fill-rule="nonzero" fill="#FFFFFF">
            <g id="location" transform="translate(191.000000, 10875.000000)">
                <path d="M16.112,3.02526316 C14.4058444,1.18885449 12.0103999,0.14317855 9.5,0.138947368 C6.98863897,0.144808243 4.59304733,1.19283668 2.888,3.03157895 C-0.729900708,6.94478083 -0.729900708,12.9720613 2.888,16.8852632 L8.303,22.5978947 L9.5,23.8610526 L10.7065,22.5978947 L16.0898333,16.8947368 C19.7299007,12.9657455 19.7299007,6.93846505 16.112,3.02526316 Z M15.2,16.0168421 L9.5,22.0263158 L3.8,16.0263158 C0.634793034,12.6028447 0.634793034,7.32978685 3.8,3.90631579 C5.26911159,2.31999944 7.33466664,1.41596149 9.5,1.41157895 L9.5,1.41157895 C11.6643711,1.41433264 13.7297786,2.31601748 15.2,3.9 C18.3593719,7.32210372 18.3593719,12.5884226 15.2,16.0105263 L15.2,16.0168421 Z" id="Shape"></path>
                <path d="M9.5,4.76526316 C6.93436119,4.76526316 4.8545,6.83936296 4.8545,9.39789474 C4.8545,11.9564265 6.93436119,14.0305263 9.5,14.0305263 C12.0656388,14.0305263 14.1455,11.9564265 14.1455,9.39789474 C14.1437534,6.84008478 12.064915,4.76700494 9.5,4.76526316 L9.5,4.76526316 Z M9.5,12.7642105 C8.13310144,12.7642099 6.90085634,11.9429219 6.37806323,10.6834482 C5.85527011,9.4239744 6.14492962,7.97445625 7.11192589,7.01104241 C8.07892216,6.04762856 9.53273771,5.76013069 10.7952193,6.28265634 C12.0577008,6.80518198 12.8801144,8.0347832 12.8788333,9.39789474 C12.8753433,11.2568487 11.3641202,12.7624732 9.5,12.7642105 L9.5,12.7642105 Z" id="Shape"></path>
            </g>
        </g>
    </g>
</svg>