<?xml version="1.0" encoding="UTF-8" standalone="no"?>
<svg width="46px" height="58px" viewBox="0 0 46 58" version="1.1" xmlns="http://www.w3.org/2000/svg" xmlns:xlink="http://www.w3.org/1999/xlink">
    <!-- Generator: Sketch 47.1 (45422) - http://www.bohemiancoding.com/sketch -->
    <title>Shape</title>
    <desc>Created with Sketch.</desc>
    <defs></defs>
    <g id="Page-1" stroke="none" stroke-width="1" fill="none" fill-rule="evenodd">
        <g id="Mobile-Copy" transform="translate(-133.000000, -9828.000000)" fill-rule="nonzero" fill="#AE8B77">
            <g id="mapMarker" transform="translate(133.000000, 9828.000000)">
                <path d="M41.8998397,9.92709984 C37.5903326,3.58478605 30.7134596,0 23.0113618,0 C15.309264,0 8.43239102,3.58478605 4.12288393,9.92709984 C-0.186623162,16.177496 -1.1952312,24.0824089 1.46382636,31.0681458 C2.19735948,32.9064976 3.29765917,34.836767 4.76472541,36.5832013 L23.0113618,58 L41.1663066,36.5832013 C42.6333728,34.836767 43.8253641,32.9984152 44.4672056,31.0681458 C47.2179548,24.0824089 46.2093468,16.177496 41.8998397,9.92709984 Z M23.0113618,30.3328051 C17.87663,30.3328051 13.6588145,26.1965135 13.6588145,21.141046 C13.6588145,16.0855784 17.87663,11.9492868 23.0113618,11.9492868 C28.1460937,11.9492868 32.3639091,16.0855784 32.3639091,21.141046 C32.3639091,26.1965135 28.1460937,30.3328051 23.0113618,30.3328051 Z" id="Shape"></path>
            </g>
        </g>
    </g>
</svg>