<svg width="15" height="25" viewBox="0 0 15 25" xmlns="http://www.w3.org/2000/svg"><title>phone</title><g fill-rule="nonzero" fill="#4A516D" opacity=".7"><path d="M4.038 25h6.924C13.182 25 15 23.25 15 21.111V3.89C15 1.75 13.183 0 10.962 0H4.038C1.818 0 0 1.75 0 3.889V21.11C0 23.25 1.817 25 4.038 25zM1.154 5.556h12.692v12.222H1.154V5.556zM4.038 1.11h6.924c1.586 0 2.884 1.25 2.884 2.778v.555H1.154V3.89c0-1.528 1.298-2.778 2.884-2.778zM1.154 18.89h12.692v2.222c0 1.528-1.298 2.778-2.884 2.778H4.038c-1.586 0-2.884-1.25-2.884-2.778V18.89z"/><path d="M5.571 22H8.43c.314 0 .571-.225.571-.5s-.257-.5-.571-.5H5.57c-.314 0-.571.225-.571.5s.257.5.571.5z"/></g></svg>
