<?xml version="1.0" encoding="UTF-8" standalone="no"?>
<svg width="58px" height="58px" viewBox="0 0 58 58" version="1.1" xmlns="http://www.w3.org/2000/svg" xmlns:xlink="http://www.w3.org/1999/xlink">
    <!-- Generator: Sketch 47.1 (45422) - http://www.bohemiancoding.com/sketch -->
    <title>crowns-bridges</title>
    <desc>Created with Sketch.</desc>
    <defs></defs>
    <g id="Page-1" stroke="none" stroke-width="1" fill="none" fill-rule="evenodd">
        <g id="Mobile-Copy" transform="translate(-23.000000, -3126.000000)" stroke="#AE8B77">
            <g id="crowns-bridges" transform="translate(24.000000, 3127.000000)">
                <path d="M14.5314861,15.7919028 C13.7952361,16.9643056 13.4357222,18.2960139 13.3986944,19.9842222 C13.3388472,22.7475278 14.0643333,25.085875 15.615625,27.1323056 C15.8141111,27.3940833 15.9820278,27.6760972 16.1589861,27.9740417 L16.3221667,28.2465833 C16.6407778,28.771 16.785875,29.3186667 16.7656389,29.9210139 C16.7376528,30.7369167 16.9779028,36.0069167 17.2340833,37.8798333 C17.5208333,39.9727639 18.0461111,41.7690417 18.8404861,43.3702778 C19.3463889,44.3898333 20.1166528,45.6733194 21.5921667,46.5538056 C21.6098194,46.5641389 21.6283333,46.5740417 21.6477083,46.5813611 C21.9615833,46.71225 22.2707222,46.7772639 22.5703889,46.7772639 C22.9673611,46.7772639 23.34625,46.6627361 23.6928472,46.4354028 C24.8859167,45.6539444 25.744875,43.4981528 26.2464722,40.0274444 C26.6107222,37.5104167 26.651625,35.1729306 26.6520556,35.1423611 C26.6520556,34.103 27.4907778,33.25825 28.5266944,33.2431806 C29.5626111,33.2578194 30.4013333,34.103 30.4013333,35.1488194 C30.4168333,36.1158472 30.6321111,44.646875 33.3605417,46.4349722 C33.7075694,46.6623056 34.0864583,46.7768333 34.483,46.7768333 C34.7822361,46.7768333 35.0918056,46.7118194 35.4056806,46.5809306 C35.4108472,46.5787778 35.4138611,46.5744722 35.4190278,46.5718889 C35.424625,46.5693056 35.4302222,46.5701667 35.4358194,46.5671528 C37.2764444,45.6298333 39.1011389,41.2321389 39.5222222,39.2356528 C40.0905556,36.5429583 40.3191806,33.6181944 40.2416806,30.0329583 L40.2352222,29.8534167 C40.2261806,29.6303889 40.2171389,29.4000417 40.2821528,29.2562361 L40.3394167,29.1309444 C40.6601806,28.4226806 40.9921389,27.6907361 41.4459444,27.0612639 C43.3369444,24.4413333 43.9875139,21.4222778 43.38,18.0871944 C42.8710833,15.2941806 40.6967778,13.2507639 37.5631944,12.6212917 C35.5090139,12.2088194 33.3803472,12.4736111 31.2331667,13.4083472 C29.3456111,14.2307083 27.4666667,14.2152083 25.4874028,13.3631389 C24.3838889,12.8878056 23.2360278,12.5958889 21.9800972,12.4718889 C18.95975,12.1722222 15.9652361,13.5069444 14.5314861,15.7919028 Z M31.5776111,14.1984167 C33.587875,13.3226667 35.4896389,13.0828472 37.3939861,13.4660417 C40.1689167,14.0231806 42.0900556,15.8086944 42.5339583,18.2421944 C43.1053056,21.381375 42.5214722,24.1011944 40.748875,26.5579444 C40.2442639,27.2571667 39.8942222,28.0291528 39.5558056,28.7753056 L39.4994028,28.9001667 C39.3491389,29.2304028 39.3633472,29.5800139 39.3758333,29.8882917 L39.3814306,30.0510417 C39.4576389,33.5695417 39.2346111,36.4310139 38.6804861,39.0582639 C38.2848056,40.934625 36.5690417,45.0050972 35.0590833,45.7912917 C34.5936528,45.979875 34.2035694,45.9570556 33.8337222,45.7150833 C31.8449861,44.4117917 31.3042083,37.6357083 31.2633056,35.1419306 C31.2633056,33.6427361 30.0620556,32.42125 28.5723333,32.3825 C28.565875,32.3820694 28.5607083,32.3790556 28.55425,32.3790556 C28.5452083,32.3790556 28.5365972,32.3803472 28.5275556,32.3803472 C28.5185139,32.3803472 28.5099028,32.3790556 28.5008611,32.3790556 C28.4944028,32.3790556 28.4892361,32.3825 28.4827778,32.3825 C26.9930556,32.42125 25.7918056,33.6427361 25.7918056,35.1346111 C25.7509028,37.6357083 25.210125,44.4113611 23.2213889,45.7146528 C22.8545556,45.9544722 22.4687778,45.9811667 22.0072222,45.7968889 C20.74225,45.0313611 20.0632639,43.8938333 19.6124722,42.9866528 C18.8602917,41.4706667 18.3617083,39.7613611 18.0883056,37.7618611 C17.8385833,35.9384583 17.6013472,30.6882639 17.62675,29.949 C17.6530139,29.1847639 17.4618472,28.4605694 17.0588472,27.7979444 L16.9004028,27.5331528 C16.7187083,27.2274583 16.5309861,26.9114306 16.3027917,26.6104722 C14.8733472,24.7250694 14.205125,22.5636806 14.2606667,20.0014444 C14.2938194,18.4759861 14.6115694,17.2833472 15.2612778,16.2478611 C16.5258194,14.2332917 19.1931111,13.0608889 21.8965694,13.3278333 C23.0638056,13.4432222 24.1272778,13.7131806 25.1485556,14.1527778 C27.3581667,15.1060278 29.4605694,15.1206667 31.5776111,14.1984167 Z" id="Shape" stroke-width="0.700000048" fill="#AE8B77" fill-rule="nonzero"></path>
                <circle id="Oval-Copy" stroke-width="2" cx="28" cy="28" r="28"></circle>
                <path d="M32.7408423,16.5960561 C32.6594673,16.3725978 32.4114673,16.25807 32.18887,16.3390144 C31.9654117,16.4203894 31.8504534,16.6675283 31.9318284,16.8909867 C32.7761478,19.2065144 34.9956617,20.7621117 37.4554256,20.7621117 C39.9151895,20.7621117 42.1347034,19.2065144 42.9790228,16.8909867 C43.0603978,16.6670978 42.9454395,16.4203894 42.7219811,16.3390144 C42.4989534,16.2576394 42.2509534,16.3725978 42.1700089,16.5960561 C41.4492589,18.5731672 39.5543839,19.9014311 37.4554256,19.9014311 C35.3564673,19.9014311 33.4615923,18.5731672 32.7408423,16.5960561 Z" id="Shape" stroke-width="0.700000048" fill="#AE8B77" fill-rule="nonzero" transform="translate(37.455426, 18.537494) rotate(46.000000) translate(-37.455426, -18.537494) "></path>
                <path d="M17.9094088,14.475507 C17.8280338,14.2520487 17.5800338,14.1375209 17.3574365,14.2184654 C17.1339782,14.2998404 17.0190199,14.5469793 17.1003949,14.7704376 C17.9447143,17.0859654 20.1642282,18.6415626 22.6239921,18.6415626 C25.083756,18.6415626 27.3032699,17.0859654 28.1475893,14.7704376 C28.2289643,14.5465487 28.114006,14.2998404 27.8905477,14.2184654 C27.6675199,14.1370904 27.4195199,14.2520487 27.3385754,14.475507 C26.6178254,16.4526182 24.7229504,17.780882 22.6239921,17.780882 C20.5250338,17.780882 18.6301588,16.4526182 17.9094088,14.475507 Z" id="Shape" stroke-width="0.700000048" fill="#AE8B77" fill-rule="nonzero" transform="translate(22.623992, 16.416945) rotate(2.000000) translate(-22.623992, -16.416945) "></path>
            </g>
        </g>
    </g>
</svg>