<?xml version="1.0" encoding="UTF-8" standalone="no"?>
<svg width="58px" height="58px" viewBox="0 0 58 58" version="1.1" xmlns="http://www.w3.org/2000/svg" xmlns:xlink="http://www.w3.org/1999/xlink">
    <!-- Generator: Sketch 47.1 (45422) - http://www.bohemiancoding.com/sketch -->
    <title>dental-check</title>
    <desc>Created with Sketch.</desc>
    <defs></defs>
    <g id="Page-1" stroke="none" stroke-width="1" fill="none" fill-rule="evenodd">
        <g id="Mobile-Copy" transform="translate(-23.000000, -5237.000000)" stroke="#AE8B77">
            <g id="dental-check" transform="translate(24.000000, 5238.000000)">
                <path d="M22.8192903,22.3387742 L22.8884839,22.4540968 C22.9912258,22.6230968 23.0377742,22.7992258 23.0319032,22.992129 C23.0201613,23.3255161 23.117871,25.4747097 23.2222903,26.2366774 C23.3413871,27.1064194 23.5607097,27.8537097 23.8924194,28.5217419 C24.1109032,28.9624839 24.4447097,29.5177097 25.093871,29.9051935 C25.1110645,29.9152581 25.1290968,29.9249032 25.1479677,29.9320323 C25.3064839,29.997871 25.4633226,30.031 25.6155484,30.031 C25.8210323,30.031 26.0185484,29.9706129 26.2005484,29.8519355 C27.3797742,29.0786452 27.4917419,25.7644839 27.5022258,25.1010645 C27.5022258,24.8146452 27.7353871,24.5823226 28.0213871,24.5823226 C28.2566452,24.5823226 28.5191613,24.8041613 28.5191613,25.1077742 C28.5296452,25.7644839 28.6420323,29.0790645 29.8208387,29.8519355 C30.0028387,29.9706129 30.1999355,30.031 30.4058387,30.031 C30.5580645,30.031 30.7153226,29.997871 30.8734194,29.9320323 C30.8784516,29.9299355 30.8818065,29.9253226 30.8868387,29.9228065 C30.891871,29.9202903 30.8977419,29.921129 30.9027742,29.9181935 C31.7934839,29.464871 32.5219032,27.5299677 32.6762258,26.7994516 C32.9089677,25.6969677 33.0024839,24.5018065 32.9710323,23.0403548 L32.9685161,22.9615161 C32.9664194,22.9162258 32.9639032,22.847871 32.966,22.8340323 L32.9878065,22.7853871 C33.1182258,22.498129 33.2406774,22.2272258 33.4092581,21.9932258 C34.2110645,20.8823548 34.487,19.6037419 34.2303548,18.1930323 C34.0068387,16.966 33.0590968,16.0702581 31.6957742,15.7964194 C30.821,15.6202903 29.9135161,15.7326774 29.0014194,16.1289677 C28.3086452,16.4304839 27.6154516,16.4254516 26.8849355,16.1096774 C26.4232258,15.9113226 25.9241935,15.7846774 25.4004194,15.7326774 C24.0911935,15.6030968 22.7945484,16.1855806 22.1697097,17.1828065 C21.8489032,17.6935806 21.6920645,18.2693548 21.676129,18.9952581 C21.6509677,20.1652581 21.9596129,21.1561935 22.6184194,22.0255161 C22.6943226,22.1261613 22.7563871,22.2326774 22.8192903,22.3387742 Z M22.8800968,17.6298387 C23.3334194,16.9077097 24.3373548,16.472 25.3178065,16.568871 C25.7619032,16.6124839 26.1657419,16.7156452 26.5532258,16.8817097 C27.4950968,17.2876452 28.4315161,17.2939355 29.3364839,16.8997419 C30.0976129,16.5684516 30.8168065,16.4761935 31.5305484,16.6204516 C32.5445484,16.8238387 33.2452903,17.4688065 33.4054839,18.3448387 C33.6227097,19.5387419 33.4012903,20.5720323 32.7294839,21.5038387 C32.511,21.8057742 32.3654839,22.1282581 32.2241613,22.4402581 L32.2027742,22.4872258 C32.1176452,22.673 32.1247742,22.8596129 32.1302258,22.9954839 L32.1323226,23.0579677 C32.1625161,24.4552581 32.0744516,25.5891935 31.8555484,26.6270968 C31.6911613,27.4070968 31.0105484,28.9008387 30.5354194,29.1633548 C30.4016452,29.2136774 30.3332903,29.1843226 30.2812903,29.1511935 C29.684129,28.7595161 29.3817742,26.5436452 29.3582903,25.1019032 C29.3582903,24.3659355 28.7464516,23.7444516 28.0218065,23.7444516 C27.2732581,23.7444516 26.6639355,24.3533548 26.6639355,25.0956129 C26.6404516,26.5436452 26.3389355,28.7590968 25.7409355,29.1516129 C25.6897742,29.1847419 25.6239355,29.2149355 25.4964516,29.1688065 C25.145871,28.9515806 24.8896452,28.6450323 24.6439032,28.1497742 C24.3537097,27.5643548 24.1608065,26.9013548 24.053871,26.1234516 C23.9494516,25.3614839 23.8618065,23.2697419 23.8701935,23.0210645 C23.8819355,22.6650323 23.7930323,22.3282903 23.6055806,22.0183871 L23.5405806,21.9101935 C23.4617419,21.7776774 23.3816452,21.6447419 23.2872903,21.5201935 C22.7467419,20.8077097 22.4942903,19.9882903 22.5152581,19.0145484 C22.5274194,18.4471613 22.6435806,18.0068387 22.8800968,17.6298387 Z" id="Shape" stroke-width="0.5" fill="#AE8B77" fill-rule="nonzero"></path>
                <path d="M18.6098065,45.5647419 L37.3897742,45.5647419 C39.3611613,45.5647419 40.9647742,43.961129 40.9647742,41.9897419 L40.9647742,15.5913548 C40.9647742,13.6199677 39.3611613,12.0163548 37.3897742,12.0163548 L18.6098065,12.0163548 C16.6384194,12.0163548 15.0348065,13.6199677 15.0348065,15.5913548 L15.0348065,41.9893226 C15.0348065,43.961129 16.6384194,45.5647419 18.6098065,45.5647419 Z M15.8735161,15.5913548 C15.8735161,14.0825161 17.1013871,12.8550645 18.6098065,12.8550645 L37.3897742,12.8550645 C38.8986129,12.8550645 40.1260645,14.0829355 40.1260645,15.5913548 L40.1260645,41.9893226 C40.1260645,43.4981613 38.8981935,44.7256129 37.3897742,44.7256129 L18.6098065,44.7256129 C17.1009677,44.7256129 15.8735161,43.4977419 15.8735161,41.9893226 L15.8735161,15.5913548 Z" id="Shape" stroke-width="0.599999964" fill="#AE8B77" fill-rule="nonzero"></path>
                <path d="M28,31.6262258 C25.041871,31.6262258 22.6356129,34.0324839 22.6356129,36.9906129 C22.6356129,39.9483226 25.041871,42.3545806 28,42.3545806 C30.958129,42.3545806 33.3643871,39.9483226 33.3643871,36.9906129 C33.3643871,34.0324839 30.958129,31.6262258 28,31.6262258 Z M28,41.515871 C25.5044194,41.515871 23.4743226,39.4857742 23.4743226,36.9906129 C23.4743226,34.4950323 25.5044194,32.4649355 28,32.4649355 C30.4955806,32.4649355 32.5256774,34.4950323 32.5256774,36.9906129 C32.5256774,39.4857742 30.4955806,41.515871 28,41.515871 Z" id="Shape" stroke-width="0.5" fill="#AE8B77" fill-rule="nonzero"></path>
                <path d="M29.9999032,35.5929032 L27.5110323,38.0817742 L26.3712258,36.9419677 C26.2072581,36.778 25.9422258,36.778 25.7782581,36.9419677 C25.6142903,37.1059355 25.6142903,37.3709677 25.7782581,37.5349355 L27.1994516,38.956129 C27.2044839,38.9615806 27.2061613,38.969129 27.2116129,38.9745806 C27.2933871,39.0563548 27.4007419,39.0974516 27.5080968,39.0974516 C27.6154516,39.0974516 27.7228065,39.0563548 27.8045806,38.9745806 L30.592871,36.1862903 C30.7568387,36.0223226 30.7568387,35.7572903 30.592871,35.5933226 C30.4289032,35.4293548 30.1634516,35.4289355 29.9999032,35.5929032 Z" id="Shape" stroke-width="0.5" fill="#AE8B77" fill-rule="nonzero"></path>
                <circle id="Oval-Copy-16" stroke-width="2" cx="28" cy="28" r="28"></circle>
            </g>
        </g>
    </g>
</svg>