<?xml version="1.0" encoding="UTF-8" standalone="no"?>
<svg width="58px" height="58px" viewBox="0 0 58 58" version="1.1" xmlns="http://www.w3.org/2000/svg" xmlns:xlink="http://www.w3.org/1999/xlink">
    <!-- Generator: Sketch 47.1 (45422) - http://www.bohemiancoding.com/sketch -->
    <title>early dental problems</title>
    <desc>Created with Sketch.</desc>
    <defs></defs>
    <g id="Page-1" stroke="none" stroke-width="1" fill="none" fill-rule="evenodd">
        <g id="Mobile-Copy" transform="translate(-23.000000, -5410.000000)" stroke="#AE8B77">
            <g id="early-dental-problems" transform="translate(24.000000, 5411.000000)">
                <path d="M15.8795167,27.4109272 L16.048402,27.6909228 C16.3785972,28.2296821 16.528767,28.7923273 16.5069322,29.4111485 C16.4784133,30.2502507 16.727508,35.6657107 16.992199,37.5876394 C17.2889737,39.7382534 17.832615,41.5832165 18.6547611,43.2282459 C19.1783501,44.2756861 19.9750966,45.5938328 21.5026397,46.4988423 C21.5213552,46.5094583 21.5400707,46.5196319 21.5596774,46.5271515 C21.8845254,46.6616202 22.2049173,46.7284122 22.5150602,46.7284122 C22.9254649,46.7284122 23.3175996,46.6107521 23.6767594,46.3772012 C24.9110926,45.5743702 25.8005255,43.3596183 26.3196584,39.7939871 C26.6961969,37.2081193 26.7389752,34.8067036 26.7394208,34.7752981 C26.7394208,33.7075108 27.6074645,32.8396571 28.6795965,32.8241755 C29.7517286,32.8392148 30.6197723,33.7075108 30.6197723,34.7819331 C30.6358141,35.7754088 30.8590636,44.5397577 33.6824337,46.3767589 C34.0415934,46.6103098 34.4337282,46.7279698 34.8441328,46.7279698 C35.1542758,46.7279698 35.4746677,46.6611778 35.7995156,46.5267092 C35.8048629,46.5244975 35.8079822,46.5200742 35.8133295,46.5174202 C35.8191224,46.5147662 35.8249153,46.5156509 35.8307082,46.5125546 C37.7356809,45.550042 39.6237205,41.0320719 40.0599704,38.9805401 C40.6481725,36.2146436 40.8847902,33.2098882 40.8045808,29.5257123 L40.7983423,29.3434719 C40.7889845,29.113902 40.7791812,28.8763702 40.8469135,28.7286316 L40.908853,28.5928359 C41.2399395,27.8678552 41.5826118,27.118104 42.051391,26.4731852 C44.0084998,23.7816003 44.681813,20.6795321 44.0530606,17.2536775 C43.5263524,14.3838331 41.2760337,12.2845296 38.0329012,11.6382838 C35.9073527,11.2149729 33.7033772,11.4865642 31.4815775,12.4468651 C29.5289247,13.2912752 27.5842929,13.276236 25.5349433,12.4004203 C24.3928509,11.9120868 23.2053065,11.6121863 21.9050234,11.4847949 C18.7786401,11.1773748 15.6789932,12.5477166 14.1946741,14.8951679 C13.4335762,16.0996356 13.0610482,17.4682081 13.0231716,19.2021461 C12.9607865,22.0405849 13.7111898,24.4428853 15.3176054,26.5457275 C15.5230305,26.8151071 15.6959263,27.1043917 15.8795167,27.4109272 Z M14.9495335,15.3653659 C16.2582832,13.2956986 19.0192682,12.0934425 21.8172387,12.3654762 C23.0248354,12.4840209 24.1254863,12.7613625 25.1824677,13.213425 C27.4702174,14.1905344 29.6470108,14.2055737 31.837618,13.2589851 C33.9177145,12.3601682 35.887746,12.1129051 37.8577774,12.5065798 C40.7292731,13.0789563 42.7175745,14.9133035 43.1765504,17.4138013 C43.7683173,20.6383953 43.1640733,23.432601 41.329061,25.9565424 C40.8081457,26.6726765 40.4467579,27.4635646 40.0974015,28.2287974 L40.0359076,28.3632661 C39.8803905,28.7029764 39.8950956,29.0625916 39.9080182,29.3801853 L39.9138111,29.5456172 C39.9922381,33.1607895 39.7618589,36.1005222 39.1883618,38.7991844 C38.7784028,40.7268634 37.0026563,44.9086619 35.4403559,45.7163585 C34.9590996,45.9105419 34.5553791,45.8862137 34.1721565,45.6380659 C32.1138947,44.2991296 31.5542115,37.3377223 31.5118788,34.7757404 C31.5118788,33.2355434 30.269079,31.98065 28.7268309,31.9408402 C28.7201468,31.9403979 28.7147995,31.9373016 28.7081154,31.9373016 C28.6987577,31.9373016 28.6898455,31.9386286 28.6804877,31.9386286 C28.67113,31.9386286 28.6622178,31.9373016 28.6528601,31.9373016 C28.646176,31.9373016 28.6408287,31.9408402 28.6341446,31.9408402 C27.0923421,31.98065 25.8490967,33.2355434 25.8490967,34.7682208 C25.8072096,37.3377223 25.2470808,44.2986873 23.188819,45.6376236 C22.8091613,45.8844444 22.4090056,45.9114266 21.9322054,45.7221088 C20.6221189,44.9352018 19.9198413,43.7670053 19.4541813,42.8350136 C18.6752591,41.2775657 18.1592454,39.5219534 17.875839,37.4673253 C17.6178321,35.5962647 17.3723023,30.2011519 17.3981475,29.4407847 C17.4253296,28.655647 17.2274798,27.9120883 16.8103911,27.2308984 L16.6459618,26.9588647 C16.4579154,26.6448096 16.2636305,26.3201386 16.027904,26.0109491 C14.548041,24.0735388 13.8564579,21.8530365 13.9143869,19.2211663 C13.9482531,17.6544295 14.2775571,16.4287299 14.9495335,15.3653659 Z" id="Shape" stroke-width="0.699999988" fill="#AE8B77" fill-rule="nonzero"></path>
                <path d="M36.7504424,15.3220174 C38.6554151,15.7019799 39.9735225,16.9148518 40.2765357,18.5656316 C40.6740178,20.7312848 40.2685148,22.6067688 39.0377465,24.3000123 C38.8938152,24.4977344 38.9388216,24.7741913 39.1384538,24.9175066 C39.2173263,24.974125 39.3086759,25.0011072 39.3986887,25.0011072 C39.5372726,25.0011072 39.673183,24.9374115 39.7605221,24.8175398 C41.1218535,22.9455944 41.5901871,20.7887879 41.1534916,18.4072771 C40.782746,16.3867085 39.2026213,14.9088802 36.9264574,14.4546061 C36.6831556,14.4055074 36.4501028,14.5616502 36.4015316,14.8009514 C36.3529603,15.0406948 36.5093686,15.273361 36.7504424,15.3220174 Z" id="Shape" stroke-width="0.699999988" fill="#AE8B77" fill-rule="nonzero"></path>
                <path d="M24.2328778,24.7861343 L26.460916,24.7861343 L26.460916,26.9977899 C26.460916,27.242399 26.6605483,27.440121 26.9065237,27.440121 L30.3969684,27.440121 C30.6429439,27.440121 30.8425761,27.242399 30.8425761,26.9977899 L30.8425761,24.7861343 L33.0706144,24.7861343 C33.3165898,24.7861343 33.516222,24.5884122 33.516222,24.3438031 L33.516222,20.8790234 C33.516222,20.6344143 33.3165898,20.4366923 33.0706144,20.4366923 L30.8425761,20.4366923 L30.8425761,18.2250366 C30.8425761,17.9804275 30.6429439,17.7827055 30.3969684,17.7827055 L26.9065237,17.7827055 C26.6605483,17.7827055 26.460916,17.9804275 26.460916,18.2250366 L26.460916,20.4366923 L24.2328778,20.4366923 C23.9869023,20.4366923 23.7872701,20.6344143 23.7872701,20.8790234 L23.7872701,24.3438031 C23.7872701,24.5884122 23.9869023,24.7861343 24.2328778,24.7861343 Z M24.6784854,21.3213545 L26.9065237,21.3213545 C27.1524991,21.3213545 27.3521313,21.1236325 27.3521313,20.8790234 L27.3521313,18.6673678 L29.9513608,18.6673678 L29.9513608,20.8790234 C29.9513608,21.1236325 30.150993,21.3213545 30.3969684,21.3213545 L32.6250067,21.3213545 L32.6250067,23.901472 L30.3969684,23.901472 C30.150993,23.901472 29.9513608,24.099194 29.9513608,24.3438031 L29.9513608,26.5554588 L27.3521313,26.5554588 L27.3521313,24.3438031 C27.3521313,24.099194 27.1524991,23.901472 26.9065237,23.901472 L24.6784854,23.901472 L24.6784854,21.3213545 Z" id="Shape" stroke-width="0.599999964" fill="#AE8B77" fill-rule="nonzero"></path>
                <circle id="Oval-Copy-17" stroke-width="2" cx="28" cy="28" r="28"></circle>
            </g>
        </g>
    </g>
</svg>