<?xml version="1.0" encoding="UTF-8" standalone="no"?>
<svg width="58px" height="58px" viewBox="0 0 58 58" version="1.1" xmlns="http://www.w3.org/2000/svg" xmlns:xlink="http://www.w3.org/1999/xlink">
    <!-- Generator: Sketch 47.1 (45422) - http://www.bohemiancoding.com/sketch -->
    <title>Examination Cleaning</title>
    <desc>Created with Sketch.</desc>
    <defs></defs>
    <g id="Page-1" stroke="none" stroke-width="1" fill="none" fill-rule="evenodd">
        <g id="Mobile-Copy" transform="translate(-23.000000, -2955.000000)" stroke="#AE8B77">
            <g id="Examination-Cleaning" transform="translate(24.000000, 2956.000000)">
                <path d="M32.6483571,22.4764692 L32.6483571,43.785546 C32.6483571,44.9280411 33.58575,45.8577863 34.7376429,45.8577863 C35.8895357,45.8577863 36.8269286,44.9280411 36.8269286,43.785546 L36.8269286,22.4764692 C39.6386429,21.5946158 41.6833571,18.9840536 41.6833571,15.907007 C41.6833571,12.1083604 38.5675357,9.01795942 34.7376429,9.01795942 C30.90775,9.01795942 27.7919286,12.1083604 27.7919286,15.907007 C27.7919286,18.9835931 29.8366429,21.5946158 32.6483571,22.4764692 Z M35.8983571,43.785546 C35.8983571,44.4205725 35.3774286,44.9367906 34.7376429,44.9367906 C34.0978571,44.9367906 33.5769286,44.4205725 33.5769286,43.785546 L33.5769286,22.6919821 C33.9553214,22.7555308 34.3411429,22.7960547 34.7376429,22.7960547 C35.1341429,22.7960547 35.5199643,22.7555308 35.8983571,22.6919821 L35.8983571,43.785546 Z M34.7376429,9.93895509 C38.0554286,9.93895509 40.7547857,12.615829 40.7547857,15.907007 C40.7547857,19.1981851 38.0554286,21.875059 34.7376429,21.875059 C31.4198571,21.875059 28.7205,19.1981851 28.7205,15.907007 C28.7205,12.615829 31.4198571,9.93895509 34.7376429,9.93895509 Z" id="Shape" stroke-width="0.599999964" fill="#AE8B77" fill-rule="nonzero"></path>
                <path d="M32.7272857,19.8424215 C32.8178214,19.9322186 32.9366786,19.9773474 33.0555357,19.9773474 C33.1743929,19.9773474 33.29325,19.9322186 33.3837857,19.8424215 C33.5653214,19.6623669 33.5653214,19.3713323 33.3837857,19.1912776 L31.6403929,17.4621082 C31.4588571,17.2820536 31.1654286,17.2820536 30.9838929,17.4621082 C30.8023571,17.6421629 30.8023571,17.9331975 30.9838929,18.1132522 L32.7272857,19.8424215 Z" id="Shape" stroke-width="0.599999964" fill="#AE8B77" fill-rule="nonzero"></path>
                <path d="M35.1624643,19.8221596 C35.253,19.9119567 35.3718571,19.9570855 35.4907143,19.9570855 C35.6095714,19.9570855 35.7284286,19.9119567 35.8189643,19.8221596 C36.0005,19.642105 36.0005,19.3510703 35.8189643,19.1710157 L31.7541429,15.1388966 C31.5726071,14.958842 31.2791786,14.958842 31.0976429,15.1388966 C30.9161071,15.3189513 30.9161071,15.6099859 31.0976429,15.7900406 L35.1624643,19.8221596 Z" id="Shape" stroke-width="0.599999964" fill="#AE8B77" fill-rule="nonzero"></path>
                <path d="M19.1910357,18.8012359 C20.4139643,19.4574453 21.1791071,20.6542792 21.2176429,21.9418312 C20.3076429,22.1656331 19.6288571,22.9765698 19.6288571,23.9472992 L19.6288571,43.785546 C19.6288571,44.9280411 20.56625,45.8577863 21.7181429,45.8577863 C22.8700357,45.8577863 23.8074286,44.9280411 23.8074286,43.785546 L23.8074286,23.9472992 C23.8074286,22.9494004 23.0928929,22.1149784 22.1443571,21.9188063 C22.0979286,20.3015379 21.1484643,18.8039989 19.6325714,17.9907597 C18.1705357,17.2060714 17.3013929,15.6947175 17.3645357,14.0456748 C17.4499643,11.8104183 19.3553929,9.96059848 21.6118214,9.92191667 C23.20525,9.88553734 24.6942143,10.7397608 25.47375,12.1309248 C25.5977143,12.3524242 25.8809286,12.4334719 26.1051786,12.3095979 C26.3294286,12.185724 26.4102143,11.9057413 26.2853214,11.6833209 C25.3391071,9.99513582 23.5390714,8.96730465 21.5955714,9.00138149 C18.8548929,9.04881277 16.5404286,11.2955817 16.4364286,14.0111374 C16.3602857,16.0129215 17.4151429,17.8484659 19.1910357,18.8012359 Z M22.8788571,23.9472992 L22.8788571,43.785546 C22.8788571,44.4205725 22.3579286,44.9367906 21.7181429,44.9367906 C21.0783571,44.9367906 20.5574286,44.4205725 20.5574286,43.785546 L20.5574286,23.9472992 C20.5574286,23.3122727 21.0783571,22.7960547 21.7181429,22.7960547 C22.3579286,22.7960547 22.8788571,23.3122727 22.8788571,23.9472992 Z" id="Shape" stroke-width="0.599999964" fill="#AE8B77" fill-rule="nonzero"></path>
                <circle id="Oval" stroke-width="2" cx="28" cy="28" r="28"></circle>
            </g>
        </g>
    </g>
</svg>