<?xml version="1.0" encoding="UTF-8" standalone="no"?>
<svg width="58px" height="58px" viewBox="0 0 58 58" version="1.1" xmlns="http://www.w3.org/2000/svg" xmlns:xlink="http://www.w3.org/1999/xlink">
    <!-- Generator: Sketch 47.1 (45422) - http://www.bohemiancoding.com/sketch -->
    <title>extractions</title>
    <desc>Created with Sketch.</desc>
    <defs></defs>
    <g id="Page-1" stroke="none" stroke-width="1" fill="none" fill-rule="evenodd">
        <g id="Mobile-Copy" transform="translate(-23.000000, -3643.000000)" stroke="#AE8B77">
            <g id="extractions" transform="translate(24.000000, 3644.000000)">
                <circle id="Oval-Copy-8" stroke-width="2" cx="28" cy="28" r="28"></circle>
                <path d="M23.9019154,39.0796215 C22.4488304,39.0796215 21.2661989,40.257009 21.2661989,41.7046236 C21.2661989,43.1522383 22.448392,44.3296258 23.9019154,44.3296258 C25.3554387,44.3296258 26.5376318,43.1522383 26.5376318,41.7046236 C26.5376318,40.257009 25.3554387,39.0796215 23.9019154,39.0796215 Z M23.9019154,43.4565168 C22.9323154,43.4565168 22.1428716,42.6707187 22.1428716,41.7046236 C22.1428716,40.7385286 22.931877,39.9527305 23.9019154,39.9527305 C24.8719537,39.9527305 25.6609591,40.7385286 25.6609591,41.7046236 C25.6609591,42.6707187 24.8719537,43.4565168 23.9019154,43.4565168 Z" id="Shape" stroke-width="0.599999964" fill="#AE8B77" fill-rule="nonzero"></path>
                <path d="M32.3832854,44.3296258 C33.8363703,44.3296258 35.0190018,43.1522383 35.0190018,41.7046236 C35.0190018,40.257009 33.8368087,39.0796215 32.3832854,39.0796215 C30.929762,39.0796215 29.7475689,40.257009 29.7475689,41.7046236 C29.7475689,43.1522383 30.929762,44.3296258 32.3832854,44.3296258 Z M32.3832854,39.9527305 C33.3528854,39.9527305 34.1423291,40.7385286 34.1423291,41.7046236 C34.1423291,42.6707187 33.3533237,43.4565168 32.3832854,43.4565168 C31.413247,43.4565168 30.6242416,42.6707187 30.6242416,41.7046236 C30.6242416,40.7385286 31.413247,39.9527305 32.3832854,39.9527305 Z" id="Shape" stroke-width="0.599999964" fill="#AE8B77" fill-rule="nonzero"></path>
                <path d="M24.8360101,24.6335968 L24.8360101,14.9560568 C24.8360101,14.8399333 24.7899848,14.7290485 24.7075776,14.6474128 L21.6120463,11.564465 C21.4862438,11.4391738 21.2977591,11.4011936 21.1342597,11.4697326 C20.9703219,11.536962 20.8638061,11.696741 20.8638061,11.873109 L20.8638061,25.9057166 C20.8638061,25.9624687 20.8756412,26.0192207 20.897558,26.0724804 C20.9199132,26.1261766 20.9519118,26.1741976 20.992677,26.2147972 L23.8203848,29.0310102 L23.8203848,37.04877 C21.2797873,37.0924254 19.2261816,39.1643131 19.2261816,41.7046236 C19.2261816,44.2724372 21.323621,46.3613504 23.9019154,46.3613504 C25.780625,46.3613504 27.3998394,45.2494461 28.1423812,43.6538395 C28.884923,45.2494461 30.5041374,46.3613504 32.382847,46.3613504 C34.9611414,46.3613504 37.0585808,44.2724372 37.0585808,41.7046236 C37.0585808,39.1782828 35.0282069,37.1155628 32.5073345,37.0496431 L32.5073345,29.0759753 L35.3004137,26.2095585 C35.3797526,26.1279228 35.4240246,26.0187842 35.4240246,25.9057166 L35.4240246,11.873109 C35.4240246,11.696741 35.3170705,11.536962 35.1535711,11.4697326 C34.9891949,11.4011936 34.8011486,11.4391738 34.6757844,11.564465 L31.5802532,14.6474128 C31.4978459,14.729485 31.4518206,14.8399333 31.4518206,14.9560568 L31.4518206,24.6335968 L28.1436962,27.9282735 L24.8360101,24.6335968 Z M23.9019154,45.4882414 C21.807106,45.4882414 20.1028542,43.7909176 20.1028542,41.7046236 C20.1028542,39.6183297 21.807106,37.9210059 23.9019154,37.9210059 L24.2587212,37.9210059 C24.5006828,37.9210059 24.6970575,37.725866 24.6970575,37.4844514 L24.6970575,28.8502766 C24.6970575,28.7341531 24.6510322,28.6232683 24.568625,28.5416326 L21.7404788,25.724983 L21.7404788,12.9269515 L23.9593374,15.1367904 L23.9593374,24.8147669 C23.9593374,24.9308904 24.0053627,25.0417752 24.08777,25.1234109 L27.7075515,28.7284779 L27.7009765,41.7046236 C27.7009765,43.7909176 25.9967248,45.4882414 23.9019154,45.4882414 Z M32.2004991,25.1234109 C32.2829063,25.0413387 32.3289316,24.9308904 32.3289316,24.8147669 L32.3289316,15.1367904 L34.5477902,12.9269515 L34.5477902,25.7284755 L31.754711,28.5948923 C31.6753722,28.6765279 31.6311002,28.7856666 31.6311002,28.8987342 L31.6311002,37.4840148 C31.6311002,37.7254295 31.8274749,37.9205693 32.0694365,37.9205693 L32.3832854,37.9205693 C34.4780948,37.9205693 36.1823465,39.6178932 36.1823465,41.7041871 C36.1823465,43.790481 34.4780948,45.4878049 32.3832854,45.4878049 C30.2884759,45.4878049 28.5842242,43.790481 28.5842242,41.7041871 C28.5842242,41.6928367 28.5785259,41.683669 28.5776492,41.6727552 L28.5837859,28.7249855 L32.2004991,25.1234109 Z" id="Shape" stroke-width="0.599999964" fill="#AE8B77" fill-rule="nonzero"></path>
            </g>
        </g>
    </g>
</svg>