<?xml version="1.0" encoding="UTF-8" standalone="no"?>
<svg width="58px" height="58px" viewBox="0 0 58 58" version="1.1" xmlns="http://www.w3.org/2000/svg" xmlns:xlink="http://www.w3.org/1999/xlink">
    <!-- Generator: Sketch 47.1 (45422) - http://www.bohemiancoding.com/sketch -->
    <title>first-visit</title>
    <desc>Created with Sketch.</desc>
    <defs></defs>
    <g id="Page-1" stroke="none" stroke-width="1" fill="none" fill-rule="evenodd">
        <g id="Mobile-Copy" transform="translate(-23.000000, -5064.000000)" stroke="#AE8B77">
            <g id="first-visit" transform="translate(24.000000, 5065.000000)">
                <path d="M29.2648,31.0295766 L35.3052,24.646871 C35.378,24.5702258 35.4172,24.4672339 35.414,24.3614476 C35.4112,24.2552621 35.366,24.1550645 35.2888,24.0828105 L34.0424,22.9083831 C34.0424,22.9083831 34.0424,22.9079839 34.042,22.9079839 C34.0416,22.9079839 34.0416,22.9079839 34.0416,22.9075847 L32.7956,21.7331573 C32.7956,21.7331573 32.7956,21.7331573 32.7956,21.7331573 C32.7956,21.7331573 32.7956,21.7331573 32.7956,21.7331573 L29.056,18.2086774 C29.056,18.2086774 29.056,18.2086774 29.056,18.2086774 C29.056,18.2086774 29.056,18.2086774 29.056,18.2086774 L24.0692,13.5077742 C23.9088,13.3564798 23.6556,13.3636653 23.5036,13.5237419 L17.516,19.8509597 L16.798,19.1675403 C15.6584,18.0945081 13.8564,18.1452056 12.7808,19.2825081 C11.7052,20.4194113 11.7564,22.2181774 12.8964,23.2924073 L36.2588,45.2260968 C36.4196,45.3769919 36.6728,45.3694073 36.8244,45.2089315 C36.976,45.0484556 36.968,44.7957661 36.8072,44.6444718 L13.4448,22.7115806 C12.6264,21.9395403 12.5892,20.6473508 13.3624,19.8306008 C14.1352,19.01425 15.4304,18.9767258 16.2472,19.7467702 L43.0232,45.2241008 C43.1008,45.2979516 43.2004,45.3346774 43.2996,45.3346774 C43.4052,45.3346774 43.5104,45.2931613 43.5892,45.2109274 C43.7416,45.05125 43.7356,44.7985605 43.5756,44.6464677 L29.2648,31.0295766 Z M28.6856,30.4786895 L28.0236,29.8487621 L33.784,23.7618589 L34.4488,24.3885927 L28.6856,30.4786895 Z M26.7824,28.6679476 L32.5372,22.5870323 L33.2024,23.2137661 L27.4444,29.297875 L26.7824,28.6679476 Z M25.5416,27.4871331 L31.2908,21.4122056 L31.956,22.0389395 L26.204,28.1170605 L25.5416,27.4871331 Z M24.3004,26.3063185 L30.044,20.2369798 L30.7092,20.8637137 L24.9624,26.936246 L24.3004,26.3063185 Z M23.0592,25.1251048 L28.7972,19.0621532 L29.462,19.6888871 L23.7216,25.7554315 L23.0592,25.1251048 Z M21.8184,23.9442903 L27.5508,17.8869274 L28.216,18.5136613 L22.4804,24.5742177 L21.8184,23.9442903 Z M20.5772,22.7634758 L26.304,16.7121008 L26.9692,17.3388347 L21.2392,23.3934032 L20.5772,22.7634758 Z M19.3364,21.5826613 L25.0576,15.5372742 L25.7228,16.1640081 L19.9988,22.2125887 L19.3364,21.5826613 Z M23.8108,14.3624476 L24.4756,14.9891815 L18.7572,21.0317742 L18.0952,20.4018468 L23.8108,14.3624476 Z" id="Shape" stroke-width="0.400000006" fill="#AE8B77" fill-rule="nonzero"></path>
                <circle id="Oval-Copy-15" stroke-width="2" cx="28" cy="28" r="28"></circle>
            </g>
        </g>
    </g>
</svg>