<?xml version="1.0" encoding="UTF-8" standalone="no"?>
<svg width="58px" height="58px" viewBox="0 0 58 58" version="1.1" xmlns="http://www.w3.org/2000/svg" xmlns:xlink="http://www.w3.org/1999/xlink">
    <!-- Generator: Sketch 47.1 (45422) - http://www.bohemiancoding.com/sketch -->
    <title>implants</title>
    <desc>Created with Sketch.</desc>
    <defs></defs>
    <g id="Page-1" stroke="none" stroke-width="1" fill="none" fill-rule="evenodd">
        <g id="Mobile-Copy" transform="translate(-23.000000, -3298.000000)" stroke="#AE8B77">
            <g id="implants" transform="translate(24.000000, 3299.000000)">
                <circle id="Oval-Copy-2" stroke-width="2" cx="28" cy="28" r="28"></circle>
                <path d="M37.373325,12.7896 C35.4410375,11.683925 32.8337125,11.8689875 30.2634,13.286625 C29.778125,13.5539375 29.2687625,13.711975 28.75,13.7548625 C28.2312375,13.7113875 27.7224625,13.5539375 27.2371875,13.286625 C24.6662875,11.8684 22.05955,11.683925 20.1260875,12.7896 C15.33855,15.5302875 17.0452375,22.6754625 18.8095,26.465425 C18.9458,26.759175 19.0533125,27.0558625 19.1285125,27.34785 C19.1954875,27.6069375 19.4299,27.788475 19.6978,27.788475 L20.525,27.788475 L20.525,28.9617125 C20.525,30.2683125 21.2411625,31.40865 22.29925,32.0178875 L22.4984125,33.078325 C21.7264375,33.1218 21.1125,33.7627625 21.1125,34.544725 C21.1125,35.3548875 21.7710875,36.013475 22.58125,36.013475 L23.066525,36.013475 L23.1810875,36.600975 L22.58125,36.600975 C21.7710875,36.600975 21.1125,37.2595625 21.1125,38.069725 C21.1125,38.8798875 21.7710875,39.538475 22.58125,39.538475 L23.75625,39.538475 L23.8708125,40.125975 L23.16875,40.125975 C22.3585875,40.125975 21.7,40.7845625 21.7,41.594725 C21.7,42.4048875 22.3585875,43.063475 23.16875,43.063475 L24.048825,43.063475 C24.048825,43.063475 24.0494125,43.063475 24.05,43.063475 L24.445975,43.063475 L24.5699375,43.695625 C23.9342625,43.857775 23.4625,44.4347 23.4625,45.119725 C23.4625,45.9298875 24.1210875,46.588475 24.93125,46.588475 L25.3219375,46.588475 C25.9388125,47.67065 27.1003,48.350975 28.3834,48.350975 L29.378625,48.350975 C30.6764125,48.350975 31.8420125,47.67065 32.45125,46.588475 L32.56875,46.588475 C33.3789125,46.588475 34.0375,45.9298875 34.0375,45.119725 C34.0375,44.5151875 33.6703125,43.994075 33.14685,43.7690625 L33.2719875,43.063475 L34.33125,43.063475 C35.1414125,43.063475 35.8,42.4048875 35.8,41.594725 C35.8,40.7845625 35.1414125,40.125975 34.33125,40.125975 L33.7931,40.125975 L33.897675,39.538475 L34.0375,39.538475 C34.038675,39.538475 34.038675,39.538475 34.038675,39.538475 L34.91875,39.538475 C35.7289125,39.538475 36.3875,38.8798875 36.3875,38.069725 C36.3875,37.2595625 35.7289125,36.600975 34.91875,36.600975 L34.4182,36.600975 L34.522775,36.013475 L34.91875,36.013475 C35.7289125,36.013475 36.3875,35.3548875 36.3875,34.544725 C36.3875,33.77275 35.78825,33.1376625 35.0309625,33.080675 L35.20075,32.0173 C36.2600125,31.4080625 36.975,30.267725 36.975,28.9617125 L36.975,27.788475 L37.8022,27.788475 C38.0706875,27.788475 38.3045125,27.6069375 38.3714875,27.346675 C38.4461,27.057625 38.553025,26.761525 38.6905,26.465425 C40.454175,22.6754625 42.16145,15.5291125 37.373325,12.7896 Z M33.93645,32.488475 L33.7631375,33.57065 C33.735525,33.7404375 33.7837,33.91375 33.8965,34.0447625 C34.0075375,34.175775 34.1708625,34.2515625 34.343,34.2515625 L34.91875,34.2515625 C35.0779625,34.2515625 35.2125,34.3861 35.2125,34.5453125 C35.2125,34.704525 35.0779625,34.8390625 34.91875,34.8390625 L34.03045,34.8390625 C33.744925,34.8390625 33.5017,35.0435125 33.45235,35.32375 L33.1392125,37.08625 C33.10925,37.2578 33.15625,37.4334625 33.267875,37.5662375 C33.3795,37.6990125 33.5445875,37.775975 33.7179,37.775975 L34.91875,37.775975 C35.0779625,37.775975 35.2125,37.9105125 35.2125,38.069725 C35.2125,38.2289375 35.0779625,38.363475 34.91875,38.363475 L33.40535,38.363475 C33.404175,38.363475 33.404175,38.363475 33.403,38.363475 L26.9875,38.363475 C26.6626125,38.363475 26.4,38.626675 26.4,38.950975 C26.4,39.2758625 26.6626125,39.538475 26.9875,39.538475 L32.703875,39.538475 L32.513525,40.6106625 C32.4835625,40.7822125 32.5305625,40.957875 32.6421875,41.09065 C32.7538125,41.223425 32.9189,41.3003875 33.0922125,41.3003875 L34.33125,41.3003875 C34.4904625,41.3003875 34.625,41.434925 34.625,41.5941375 C34.625,41.75335 34.4904625,41.8878875 34.33125,41.8878875 L32.7796625,41.8878875 C32.4941375,41.8878875 32.2509125,42.0923375 32.2015625,42.372575 L31.888425,44.135075 C31.8584625,44.306625 31.9054625,44.4822875 32.0170875,44.6150625 C32.1287125,44.7478375 32.2938,44.8248 32.4671125,44.8248 L32.56875,44.8248 C32.7279625,44.8248 32.8625,44.9593375 32.8625,45.11855 C32.8625,45.2777625 32.7279625,45.4123 32.56875,45.4123 L32.085825,45.4123 C32.0652625,45.4123 32.045875,45.41935 32.024725,45.4217 C32.0100375,45.420525 31.9971125,45.4123 31.98125,45.4123 L29.4132875,45.4123 C29.0889875,45.4123 28.8257875,45.6755 28.8257875,45.9998 C28.8257875,46.3246875 29.0884,46.5873 29.4132875,46.5873 L30.960175,46.5873 C30.5401125,46.9586 29.9814,47.1748 29.3792125,47.1748 L28.3839875,47.1748 C27.437525,47.1748 26.5897625,46.6231375 26.2261,45.7689125 C26.1338625,45.5527125 25.9206,45.4123 25.6856,45.4123 L24.93125,45.4123 C24.7720375,45.4123 24.6375,45.2777625 24.6375,45.11855 C24.6375,44.9593375 24.7720375,44.8248 24.93125,44.8248 L25.27435,44.8248 C25.4500125,44.8248 25.616275,44.746075 25.7279,44.61095 C25.8389375,44.4752375 25.8847625,44.297225 25.8506875,44.1250875 L25.6427125,43.0623 L30.5125,43.0623 C30.8373875,43.0623 31.1,42.7996875 31.1,42.4748 C31.1,42.1505 30.8373875,41.8873 30.5125,41.8873 L24.93125,41.8873 C24.9306625,41.8873 24.930075,41.8873 24.9294875,41.8873 L23.16875,41.8873 C23.0095375,41.8873 22.875,41.7527625 22.875,41.59355 C22.875,41.4343375 23.0095375,41.2998 23.16875,41.2998 L24.584625,41.2998 C24.7602875,41.2998 24.92655,41.221075 25.038175,41.08595 C25.1492125,40.9502375 25.1950375,40.772225 25.1609625,40.6000875 L24.8161,38.8375875 C24.76205,38.560875 24.5205875,38.3623 24.2397625,38.3623 L22.58125,38.3623 C22.4220375,38.3623 22.2875,38.2277625 22.2875,38.06855 C22.2875,37.9093375 22.4220375,37.7748 22.58125,37.7748 L23.8949,37.7748 C24.0705625,37.7748 24.236825,37.696075 24.34845,37.56095 C24.4594875,37.4252375 24.5053125,37.247225 24.4712375,37.0750875 L24.2632625,36.0123 L31.1,36.0123 C31.4248875,36.0123 31.6875,35.7496875 31.6875,35.4248 C31.6875,35.0999125 31.4248875,34.8373 31.1,34.8373 L23.550625,34.8373 L22.58125,34.8373 C22.4220375,34.8373 22.2875,34.7027625 22.2875,34.54355 C22.2875,34.3843375 22.4220375,34.2498 22.58125,34.2498 L23.2057625,34.2498 C23.3808375,34.2498 23.545925,34.1716625 23.6581375,34.0377125 C23.77035,33.9037625 23.816175,33.72575 23.7838625,33.5547875 L23.583525,32.4878875 L24.0517625,32.4878875 L33.4494125,32.4878875 L33.93645,32.4878875 L33.93645,32.488475 Z M35.8,28.9617125 C35.8,30.258325 34.7454375,31.313475 33.448825,31.313475 L24.051175,31.313475 C22.7545625,31.313475 21.7,30.258325 21.7,28.9617125 L21.7,27.788475 L35.8,27.788475 L35.8,28.9617125 Z M37.6253625,25.969575 C37.5254875,26.183425 37.4397125,26.39845 37.366275,26.613475 L36.975,26.613475 L20.525,26.613475 L20.1343125,26.613475 C20.0602875,26.3978625 19.973925,26.1828375 19.8746375,25.969575 C18.2801625,22.543275 16.6621875,16.1260125 20.71065,13.8095 C22.286325,12.9076875 24.4665375,13.0998 26.67025,14.3153375 C27.31885,14.67195 28.0044625,14.8793375 28.708875,14.9298625 C28.7364875,14.931625 28.765275,14.931625 28.7928875,14.9298625 C29.4978875,14.8793375 30.1829125,14.6725375 30.830925,14.31475 C33.03405,13.1003875 35.2142625,12.9076875 36.7899375,13.8095 C40.837225,16.125425 39.21925,22.543275 37.6253625,25.969575 Z" id="Shape" stroke-width="0.400000006" fill="#AE8B77" fill-rule="nonzero"></path>
                <path d="M31.2615625,16.0367125 C29.8216,17.0436875 27.6449125,17.0366375 26.2137625,16.0202625 C25.9488,15.831675 25.5816125,15.8945375 25.3942,16.1589125 C25.2067875,16.423875 25.268475,16.790475 25.53285,16.978475 C26.4511125,17.6288375 27.5932125,17.9883875 28.75,17.9883875 C29.8926875,17.9883875 31.0242125,17.6370625 31.9348375,17.0002125 C32.1998,16.8145625 32.2656,16.44855 32.0793625,16.181825 C31.8943,15.9168625 31.5282875,15.8522375 31.2615625,16.0367125 Z" id="Shape" stroke-width="0.599999964" fill="#AE8B77" fill-rule="nonzero"></path>
            </g>
        </g>
    </g>
</svg>