<?xml version="1.0" encoding="UTF-8" standalone="no"?>
<svg width="58px" height="58px" viewBox="0 0 58 58" version="1.1" xmlns="http://www.w3.org/2000/svg" xmlns:xlink="http://www.w3.org/1999/xlink">
    <!-- Generator: Sketch 47.1 (45422) - http://www.bohemiancoding.com/sketch -->
    <title>mouthguards</title>
    <desc>Created with Sketch.</desc>
    <defs></defs>
    <g id="Page-1" stroke="none" stroke-width="1" fill="none" fill-rule="evenodd">
        <g id="Mobile-Copy" transform="translate(-23.000000, -4549.000000)" stroke="#AE8B77">
            <g id="mouthguards" transform="translate(24.000000, 4550.000000)">
                <path d="M14.5314861,15.7775123 C13.7952361,16.9454657 13.4357222,18.2721201 13.3986944,19.9539216 C13.3388472,22.7067402 14.0643333,25.0362132 15.615625,27.0748775 C15.8141111,27.3356618 15.9820278,27.6166054 16.1589861,27.9134191 L16.3221667,28.1849265 C16.6407778,28.7073529 16.785875,29.2529412 16.7656389,29.8530025 C16.7376528,30.6658088 16.9779028,35.9158088 17.2340833,37.7816176 C17.5208333,39.8666054 18.0461111,41.6560662 18.8404861,43.2512255 C19.3463889,44.2669118 20.1166528,45.545527 21.5921667,46.4226716 C21.6098194,46.4329657 21.6283333,46.4428309 21.6477083,46.4501225 C21.9615833,46.5805147 22.2707222,46.6452819 22.5703889,46.6452819 C22.9673611,46.6452819 23.34625,46.5311887 23.6928472,46.3047181 C24.8859167,45.5262255 25.744875,43.3786152 26.2464722,39.9210784 C26.6107222,37.4136029 26.651625,35.0849877 26.6520556,35.0545343 C26.6520556,34.0191176 27.4907778,33.1775735 28.5266944,33.1625613 C29.5626111,33.1771446 30.4013333,34.0191176 30.4013333,35.0609681 C30.4168333,36.024326 30.6321111,44.5229779 33.3605417,46.3042892 C33.7075694,46.5307598 34.0864583,46.6448529 34.483,46.6448529 C34.7822361,46.6448529 35.0918056,46.5800858 35.4056806,46.4496936 C35.4108472,46.447549 35.4138611,46.4432598 35.4190278,46.4406863 C35.424625,46.4381127 35.4302222,46.4389706 35.4358194,46.4359681 C37.2764444,45.5022059 39.1011389,41.121201 39.5222222,39.1322917 C40.0905556,36.4498162 40.3191806,33.536152 40.2416806,29.9645221 L40.2352222,29.7856618 C40.2261806,29.5634804 40.2171389,29.3340074 40.2821528,29.1907475 L40.3394167,29.0659314 C40.6601806,28.3603554 40.9921389,27.6311887 41.4459444,27.0041054 C43.3369444,24.3941176 43.9875139,21.3865196 43.38,18.0640931 C42.8710833,15.2816789 40.6967778,13.2460172 37.5631944,12.6189338 C35.5090139,12.208027 33.3803472,12.4718137 31.2331667,13.4030025 C29.3456111,14.2222426 27.4666667,14.2068015 25.4874028,13.3579657 C24.3838889,12.8844363 23.2360278,12.5936275 21.9800972,12.470098 C18.95975,12.1715686 15.9652361,13.5012255 14.5314861,15.7775123 Z M31.5776111,14.1900735 C33.587875,13.3176471 35.4896389,13.0787377 37.3939861,13.4604779 C40.1689167,14.0155025 42.0900556,15.7942402 42.5339583,18.2185049 C43.1053056,21.3457721 42.5214722,24.0552696 40.748875,26.5026961 C40.2442639,27.1992647 39.8942222,27.9683211 39.5558056,28.7116422 L39.4994028,28.8360294 C39.3491389,29.1650123 39.3633472,29.5132966 39.3758333,29.8204044 L39.3814306,29.9825368 C39.4576389,33.4876838 39.2346111,36.3382966 38.6804861,38.955576 C38.2848056,40.8248162 36.5690417,44.8798407 35.0590833,45.6630515 C34.5936528,45.8509191 34.2035694,45.8281863 33.8337222,45.5871324 C31.8449861,44.2887868 31.3042083,37.5384191 31.2633056,35.0541054 C31.2633056,33.5606005 30.0620556,32.34375 28.5723333,32.3051471 C28.565875,32.3047181 28.5607083,32.3017157 28.55425,32.3017157 C28.5452083,32.3017157 28.5365972,32.3030025 28.5275556,32.3030025 C28.5185139,32.3030025 28.5099028,32.3017157 28.5008611,32.3017157 C28.4944028,32.3017157 28.4892361,32.3051471 28.4827778,32.3051471 C26.9930556,32.34375 25.7918056,33.5606005 25.7918056,35.0468137 C25.7509028,37.5384191 25.210125,44.2883578 23.2213889,45.5867034 C22.8545556,45.8256127 22.4687778,45.8522059 22.0072222,45.6686275 C20.74225,44.9060049 20.0632639,43.7727941 19.6124722,42.8690564 C18.8602917,41.3588235 18.3617083,39.6560049 18.0883056,37.6640931 C17.8385833,35.8476103 17.6013472,30.6173407 17.62675,29.8808824 C17.6530139,29.1195466 17.4618472,28.3981005 17.0588472,27.7379902 L16.9004028,27.4742034 C16.7187083,27.1696691 16.5309861,26.8548407 16.3027917,26.5550245 C14.8733472,24.676777 14.205125,22.5235907 14.2606667,19.9710784 C14.2938194,18.4514093 14.6115694,17.2632966 15.2612778,16.2317402 C16.5258194,14.2248162 19.1931111,13.0568627 21.8965694,13.3227941 C23.0638056,13.4377451 24.1272778,13.7066789 25.1485556,14.1446078 C27.3581667,15.0942402 29.4605694,15.1088235 31.5776111,14.1900735 Z" id="Shape" stroke-width="0.700000048" fill="#AE8B77" fill-rule="nonzero"></path>
                <circle id="Oval-Copy-9" stroke-width="2" cx="28" cy="28" r="28"></circle>
                <path d="M23.7854167,25.4355392 C23.7040417,25.2129289 23.4560417,25.0988358 23.2334444,25.179473 C23.0099861,25.2605392 22.8950278,25.5067402 22.9764028,25.7293505 C23.8207222,28.0360907 26.0402361,29.5857843 28.5,29.5857843 C30.9597639,29.5857843 33.1792778,28.0360907 34.0235972,25.7293505 C34.1049722,25.5063113 33.9900139,25.2605392 33.7665556,25.179473 C33.5435278,25.0984069 33.2955278,25.2129289 33.2145833,25.4355392 C32.4938333,27.4051471 30.5989583,28.7283701 28.5,28.7283701 C26.4010417,28.7283701 24.5061667,27.4051471 23.7854167,25.4355392 Z" id="Shape" stroke-width="0.700000048" fill="#AE8B77" fill-rule="nonzero"></path>
                <path d="M21.7368333,21.1145833 C21.9749306,21.1145833 22.1673889,20.9228554 22.1673889,20.6856618 C22.1673889,19.8381127 22.8592917,19.1488358 23.7100694,19.1488358 C24.5608472,19.1488358 25.25275,19.8381127 25.25275,20.6856618 C25.25275,20.9228554 25.4452083,21.1145833 25.6833056,21.1145833 C25.9214028,21.1145833 26.1138611,20.9228554 26.1138611,20.6856618 C26.1138611,19.3654412 25.0353194,18.2909926 23.7100694,18.2909926 C22.3848194,18.2909926 21.3062778,19.3654412 21.3062778,20.6856618 C21.3062778,20.9228554 21.4987361,21.1145833 21.7368333,21.1145833 Z" id="Shape" stroke-width="0.700000048" fill="#AE8B77" fill-rule="nonzero"></path>
                <path d="M31.3166944,21.1145833 C31.5547917,21.1145833 31.74725,20.9228554 31.74725,20.6856618 C31.74725,19.8381127 32.4391528,19.1488358 33.2899306,19.1488358 C34.1407083,19.1488358 34.8326111,19.8381127 34.8326111,20.6856618 C34.8326111,20.9228554 35.0250694,21.1145833 35.2631667,21.1145833 C35.5012639,21.1145833 35.6937222,20.9228554 35.6937222,20.6856618 C35.6937222,19.3654412 34.6151806,18.2909926 33.2899306,18.2909926 C31.9646806,18.2909926 30.8861389,19.3654412 30.8861389,20.6856618 C30.8861389,20.9228554 31.0785972,21.1145833 31.3166944,21.1145833 Z" id="Shape" stroke-width="0.700000048" fill="#AE8B77" fill-rule="nonzero"></path>
            </g>
        </g>
    </g>
</svg>