<?xml version="1.0" encoding="UTF-8" standalone="no"?>
<svg width="58px" height="58px" viewBox="0 0 58 58" version="1.1" xmlns="http://www.w3.org/2000/svg" xmlns:xlink="http://www.w3.org/1999/xlink">
    <!-- Generator: Sketch 47.1 (45422) - http://www.bohemiancoding.com/sketch -->
    <title>orthodontics</title>
    <desc>Created with Sketch.</desc>
    <defs></defs>
    <g id="Page-1" stroke="none" stroke-width="1" fill="none" fill-rule="evenodd">
        <g id="Mobile-Copy" transform="translate(-23.000000, -4720.000000)" stroke="#AE8B77">
            <g id="orthodontics" transform="translate(24.000000, 4721.000000)">
                <path d="M14.4251852,19.2829877 C14.2837284,19.5948642 14.1502469,19.8891111 13.9655556,20.1451605 C13.6687901,20.5560988 13.4442222,20.9897037 13.2809383,21.4417778 L11.4818765,21.4417778 C11.2497531,21.4417778 11.0621235,21.6294074 11.0621235,21.8615309 C11.0621235,22.0936543 11.2497531,22.281284 11.4818765,22.281284 L13.0601481,22.281284 C12.9518519,22.906716 12.9539506,23.5627901 13.079037,24.2495062 C13.3191358,25.5692099 14.3391358,26.5325432 15.8070123,26.8276296 C16.752716,27.017358 17.7311605,26.8960494 18.7150617,26.468321 C19.4781728,26.1354568 20.241284,26.1430123 21.0463704,26.4884691 C21.5513333,26.7067407 22.0760247,26.8398025 22.6498272,26.8968889 C22.7803704,26.9094815 22.9104938,26.9161975 23.0406173,26.9161975 C24.3107901,26.9161975 25.5188395,26.3096543 26.1295802,25.3362469 C26.4741975,24.7859506 26.643358,24.1655556 26.6601481,23.3839753 C26.6685432,22.998642 26.6395802,22.633037 26.5803951,22.2817037 L28.9125432,22.2817037 C28.8042469,22.9071358 28.8059259,23.5632099 28.9314321,24.2499259 C29.1715309,25.5696296 30.1915309,26.532963 31.6594074,26.8280494 C32.6055309,27.0181975 33.5843951,26.8964691 34.5678765,26.4687407 C35.3314074,26.1362963 36.0940988,26.1430123 36.8987654,26.4888889 C37.4037284,26.7071605 37.9284198,26.8402222 38.5022222,26.8973086 C38.6327654,26.9099012 38.7628889,26.9166173 38.8925926,26.9166173 C40.1631852,26.9166173 41.3712346,26.3100741 41.9819753,25.3366667 C42.3265926,24.7863704 42.4957531,24.1659753 42.5125432,23.3843951 C42.5209383,22.9990617 42.4919753,22.6334568 42.4327901,22.2821235 L44.2490617,22.2821235 C44.4811852,22.2821235 44.6688148,22.0944938 44.6688148,21.8623704 C44.6688148,21.6302469 44.4811852,21.4426173 44.2490617,21.4426173 L42.2157778,21.4426173 C42.0474568,20.9699753 41.8111358,20.526716 41.4959012,20.1107407 C41.4111111,19.9986667 41.3405926,19.8786173 41.2700741,19.7594074 L41.1999753,19.642716 C41.0845432,19.4529877 41.0320741,19.255284 41.0392099,19.0382716 C41.0518025,18.6764444 40.9456049,16.3426173 40.8322716,15.515284 C40.7034074,14.5741975 40.4662469,13.7644938 40.1069383,13.0408395 C39.871037,12.5660988 39.5113086,11.9675309 38.8140988,11.5515556 C38.7968889,11.5414815 38.7788395,11.5318272 38.7599506,11.5246914 C38.3674815,11.3601481 37.9821481,11.3899506 37.649284,11.6082222 C36.3820494,12.4389136 36.2607407,16.026963 36.2494074,16.7447407 C36.2494074,17.0721481 35.9858025,17.3382716 35.6600741,17.3445679 C35.3343457,17.3382716 35.0707407,17.0721481 35.0707407,16.7384444 C35.0594074,16.0273827 34.9380988,12.4389136 33.6708642,11.6082222 C33.338,11.3895309 32.9526667,11.3614074 32.5601975,11.5246914 C32.5551605,11.5267901 32.5522222,11.5309877 32.5476049,11.5330864 C32.5421481,11.5356049 32.5362716,11.5351852 32.5312346,11.5377037 C31.5746173,12.0246173 30.788,14.1154074 30.6209383,14.904963 C30.3682469,16.1029383 30.2666667,17.3995556 30.3010864,18.9853827 L30.3040247,19.0684938 C30.3061235,19.122642 30.3094815,19.2040741 30.3040247,19.224642 L30.2754815,19.2876049 C30.1344444,19.5978025 30.0013827,19.8912099 29.8179506,20.1455802 C29.5211852,20.5565185 29.2966173,20.9901235 29.1333333,21.4421975 L26.3633827,21.4421975 C26.1950617,20.9695556 25.9587407,20.5262963 25.6435062,20.1107407 C25.5591358,19.9990864 25.489037,19.8794568 25.4180988,19.7602469 L25.3475802,19.6422963 C25.2321481,19.4525679 25.179679,19.2548642 25.1868148,19.0378519 C25.1994074,18.677284 25.0927901,16.3451358 24.9798765,15.5148642 C24.8510123,14.5737778 24.6138519,13.7640741 24.2545432,13.0404198 C24.0190617,12.565679 23.6593333,11.9675309 22.9617037,11.5511358 C22.9444938,11.5410617 22.9264444,11.5314074 22.9075556,11.5242716 C22.5150864,11.3597284 22.1301728,11.3895309 21.7968889,11.6078025 C20.5296543,12.4384938 20.4083457,16.0265432 20.3970123,16.744321 C20.3970123,17.0717284 20.1334074,17.3378519 19.807679,17.3441481 C19.4819506,17.3378519 19.2183457,17.0717284 19.2183457,16.7380247 C19.2070123,16.026963 19.0857037,12.4384938 17.8184691,11.6078025 C17.4851852,11.3891111 17.1006914,11.3609877 16.7078025,11.5242716 C16.7027654,11.5263704 16.6998272,11.5305679 16.6952099,11.5326667 C16.6897531,11.5351852 16.6838765,11.5347654 16.6788395,11.537284 C15.7222222,12.0241975 14.9356049,14.1149877 14.7685432,14.9045432 C14.5158519,16.1025185 14.4142716,17.3991358 14.4486914,18.984963 L14.4516296,19.0680741 C14.4537284,19.1222222 14.4570864,19.2036543 14.4516296,19.2242222 L14.4251852,19.2829877 Z M41.6726173,23.3650864 C41.6591852,23.9888395 41.5315802,24.4736543 41.2704938,24.8900494 C40.7709877,25.686321 39.6695556,26.1665185 38.5849136,26.0611605 C38.0984198,26.0128889 37.6551605,25.9003951 37.2303704,25.7173827 C36.2002963,25.2741235 35.2197531,25.2682469 34.2320741,25.6984938 C33.3976049,26.0624198 32.6088889,26.162321 31.8243704,26.0044938 C30.7061481,25.7799259 29.9333827,25.0680247 29.7566667,24.0988148 C29.6391358,23.4528148 29.6395556,22.8496296 29.7583457,22.281284 L34.0612346,22.281284 L34.0612346,23.068321 C34.0612346,23.3004444 34.2488642,23.4880741 34.4809877,23.4880741 L36.8949877,23.4880741 C37.1271111,23.4880741 37.3147407,23.3004444 37.3147407,23.068321 L37.3147407,22.281284 L41.5798519,22.281284 C41.6495309,22.622963 41.6814321,22.9826914 41.6726173,23.3650864 Z M34.9007407,22.6485679 L34.9007407,21.0740741 L36.4752346,21.0740741 L36.4752346,22.6485679 L34.9007407,22.6485679 Z M30.4983704,20.6362716 C30.7313333,20.3139012 30.8879012,19.9684444 31.0398519,19.634321 L31.0683951,19.5709383 C31.1565432,19.3765926 31.1481481,19.1788889 31.1426914,19.0344938 L31.1405926,18.9673333 C31.1074321,17.4469877 31.2031358,16.2112346 31.4423951,15.0779012 C31.6275062,14.2006173 32.3658519,12.5837284 32.8989383,12.293679 C33.0542469,12.2344938 33.1415556,12.264716 33.2103951,12.3096296 C33.8706667,12.7423951 34.2047901,15.1677284 34.2308148,16.7439012 C34.2308148,17.5221235 34.8520494,18.1542716 35.6243951,18.1794568 C35.6327901,18.1798765 35.6395062,18.1840741 35.6479012,18.1840741 C35.6520988,18.1840741 35.6554568,18.1828148 35.6596543,18.1828148 C35.6638519,18.1828148 35.6672099,18.1840741 35.6714074,18.1840741 C35.6798025,18.1840741 35.6865185,18.1798765 35.6949136,18.1794568 C36.4672593,18.1542716 37.0884938,17.5221235 37.0884938,16.7501975 C37.1140988,15.1673086 37.4473827,12.7428148 38.1089136,12.3092099 C38.1764938,12.2651358 38.2596049,12.2319753 38.4111358,12.2878025 C38.7998272,12.5274815 39.0835802,12.8658025 39.3547407,13.4127407 C39.6724938,14.053284 39.8836296,14.7781975 39.9999012,15.6277778 C40.1081975,16.4169136 40.2106173,18.6881975 40.2001235,19.0080494 C40.1871111,19.3883457 40.2815556,19.7484938 40.4817778,20.0771605 L40.547679,20.1871358 C40.6312099,20.3281728 40.717679,20.4738272 40.8263951,20.616963 C41.0240988,20.8776296 41.1836049,21.1525679 41.3116296,21.441358 L37.3151605,21.441358 L37.3151605,20.654321 C37.3151605,20.4221975 37.1275309,20.2345679 36.8954074,20.2345679 L34.4809877,20.2345679 C34.2488642,20.2345679 34.0612346,20.4221975 34.0612346,20.654321 L34.0612346,21.4417778 L30.0311852,21.4417778 C30.1550123,21.1655802 30.310321,20.8969383 30.4983704,20.6362716 Z M25.8210617,23.3650864 C25.8076296,23.9888395 25.6800247,24.4736543 25.4189383,24.8900494 C24.9194321,25.686321 23.812963,26.1665185 22.733358,26.0611605 C22.2468642,26.0128889 21.8036049,25.9003951 21.3788148,25.7173827 C20.3491605,25.2745432 19.3686173,25.2686667 18.3800988,25.6984938 C17.5460494,26.0624198 16.7590123,26.162321 15.9728148,26.0044938 C14.8545926,25.7799259 14.0818272,25.0680247 13.9051111,24.0988148 C13.7875802,23.4528148 13.788,22.8496296 13.9067901,22.281284 L18.1928889,22.281284 L18.1928889,23.068321 C18.1928889,23.3004444 18.3805185,23.4880741 18.612642,23.4880741 L21.0270617,23.4880741 C21.2591852,23.4880741 21.4468148,23.3004444 21.4468148,23.068321 L21.4468148,22.281284 L25.7282963,22.281284 C25.7975556,22.622963 25.8294568,22.9826914 25.8210617,23.3650864 Z M19.0323951,21.0740741 L20.6073086,21.0740741 L20.6073086,22.6485679 L19.0323951,22.6485679 L19.0323951,21.0740741 Z M14.6463951,20.6362716 C14.8801975,20.312642 15.0376049,19.9659259 15.1899753,19.6305432 L15.2168395,19.5709383 C15.3049877,19.3765926 15.2965926,19.1788889 15.2911358,19.0344938 L15.289037,18.9673333 C15.2558765,17.4469877 15.3515802,16.2112346 15.5908395,15.0779012 C15.7759506,14.201037 16.5142963,12.5837284 17.0473827,12.293679 C17.2026914,12.2344938 17.2895802,12.264716 17.3588395,12.3096296 C18.0191111,12.7423951 18.3532346,15.1677284 18.3792593,16.7439012 C18.3792593,17.5221235 19.0004938,18.1542716 19.7728395,18.1794568 C19.7812346,18.1798765 19.7879506,18.1840741 19.7963457,18.1840741 C19.8005432,18.1840741 19.8039012,18.1828148 19.8080988,18.1828148 C19.8122963,18.1828148 19.8156543,18.1840741 19.8198519,18.1840741 C19.8282469,18.1840741 19.834963,18.1798765 19.843358,18.1794568 C20.6157037,18.1542716 21.2369383,17.5221235 21.2369383,16.7501975 C21.2625432,15.1673086 21.5958272,12.7428148 22.257358,12.3092099 C22.3249383,12.2651358 22.4084691,12.2319753 22.5595802,12.2878025 C22.9482716,12.5274815 23.2320247,12.8662222 23.5031852,13.4127407 C23.8209383,14.053284 24.0320741,14.7781975 24.1479259,15.6277778 C24.2562222,16.4190123 24.3590617,18.689037 24.3485679,19.0080494 C24.3355556,19.3883457 24.43,19.7484938 24.6302222,20.0771605 L24.6965432,20.1879753 C24.7796543,20.3285926 24.8661235,20.4738272 24.9744198,20.616963 C25.1721235,20.8776296 25.3316296,21.1525679 25.4600741,21.441358 L21.4472346,21.441358 L21.4472346,20.654321 C21.4472346,20.4221975 21.2596049,20.2345679 21.0274815,20.2345679 L18.6130617,20.2345679 C18.3809383,20.2345679 18.1933086,20.4221975 18.1933086,20.654321 L18.1933086,21.4417778 L14.1796296,21.4417778 C14.303037,21.1655802 14.4579259,20.8969383 14.6463951,20.6362716 Z" id="Shape" stroke-width="0.6" fill="#AE8B77" fill-rule="nonzero"></path>
                <path d="M11.4818765,35.3633086 L13.3485185,35.3633086 C13.5105432,35.7608148 13.7254568,36.1364938 13.9957778,36.4924444 C14.0801481,36.6040988 14.1502469,36.7237284 14.2211852,36.8429383 L14.2917037,36.9608889 C14.4071358,37.1506173 14.4596049,37.348321 14.4524691,37.5653333 C14.4398765,37.9259012 14.5464938,40.2580494 14.6594074,41.088321 C14.7882716,42.0294074 15.0254321,42.8391111 15.3847407,43.5627654 C15.6202222,44.0375062 15.9799506,44.6356543 16.6775802,45.0520494 C16.6947901,45.0621235 16.7128395,45.0717778 16.7317284,45.0789136 C16.8987901,45.1490123 17.0650123,45.1834321 17.2261975,45.1834321 C17.4432099,45.1834321 17.6514074,45.1208889 17.8423951,44.9953827 C19.1096296,44.1646914 19.2309383,40.576642 19.2422716,39.8588642 C19.2422716,39.5314568 19.5058765,39.2653333 19.8316049,39.259037 C20.1573333,39.2653333 20.4209383,39.5314568 20.4209383,39.8651605 C20.4322716,40.5762222 20.5535802,44.1646914 21.8208148,44.9953827 C22.0122222,45.1208889 22.22,45.1834321 22.4370123,45.1834321 C22.5981975,45.1834321 22.764,45.1485926 22.9314815,45.0789136 C22.9365185,45.0768148 22.9394568,45.0726173 22.9444938,45.0700988 C22.9499506,45.0675802 22.9554074,45.0684198 22.9608642,45.0654815 C23.9174815,44.5785679 24.7040988,42.4877778 24.8711605,41.6982222 C25.1238519,40.5002469 25.2254321,39.2036296 25.1910123,37.6178025 L25.1880741,37.5346914 C25.1859753,37.4805432 25.1826173,37.3991111 25.1880741,37.3785432 L25.2149383,37.319358 C25.3563951,37.0074815 25.4898765,36.7132346 25.6745679,36.4571852 C25.9264198,36.1079506 26.1245432,35.7415062 26.2802716,35.3628889 L29.2017531,35.3628889 C29.3637778,35.7603951 29.5786914,36.1360741 29.8485926,36.4920247 C29.932963,36.603679 30.0030617,36.7233086 30.074,36.8425185 L30.1445185,36.9604691 C30.2599506,37.1501975 30.3124198,37.3479012 30.305284,37.5649136 C30.2926914,37.9254815 30.3993086,40.2576296 30.5122222,41.0879012 C30.6410864,42.0277284 30.8778272,42.8374321 31.2375556,43.5623457 C31.473037,44.0370864 31.8327654,44.6352346 32.5303951,45.0516296 C32.5476049,45.0617037 32.5656543,45.071358 32.5845432,45.0784938 C32.7516049,45.1485926 32.9178272,45.1830123 33.0790123,45.1830123 C33.2960247,45.1830123 33.5042222,45.1204691 33.6952099,44.994963 C34.9624444,44.1642716 35.0837531,40.5762222 35.0950864,39.8584444 C35.0950864,39.5314568 35.3586914,39.2653333 35.6844198,39.2586173 C36.0101481,39.2653333 36.2733333,39.5314568 36.2733333,39.8647407 C36.2846667,40.5758025 36.4059753,44.1642716 37.6732099,44.994963 C37.8641975,45.1204691 38.0723951,45.1830123 38.2894074,45.1830123 C38.4505926,45.1830123 38.6163951,45.1481728 38.7838765,45.0784938 C38.7889136,45.0763951 38.7918519,45.0721975 38.7968889,45.069679 C38.8023457,45.0671605 38.8078025,45.068 38.8132593,45.0650617 C39.7711358,44.5777284 40.5569136,42.4869383 40.7235556,41.6978025 C40.9762469,40.5006667 41.0778272,39.2044691 41.0438272,37.6161235 L41.0408889,37.5351111 C41.0383704,37.480963 41.0350123,37.3991111 41.0404691,37.3781235 L41.0673333,37.3189383 C41.2087901,37.0070617 41.3426914,36.7128148 41.526963,36.4567654 C41.7788148,36.1075309 41.9769383,35.7410864 42.1326667,35.3624691 L44.2499012,35.3624691 C44.4820247,35.3624691 44.6696543,35.1748395 44.6696543,34.942716 C44.6696543,34.7105926 44.4820247,34.522963 44.2499012,34.522963 L42.3996296,34.522963 C42.546963,33.8379259 42.552,33.1130123 42.4130617,32.3524198 C42.172963,31.032716 41.152963,30.0693827 39.6850864,29.7742963 C38.7385432,29.5833086 37.7605185,29.7054568 36.777037,30.1336049 C36.0130864,30.4664691 35.2508148,30.4597531 34.4457284,30.1126173 C33.9474815,29.8981235 33.4080988,29.761284 32.8422716,29.705037 C31.4327407,29.5681975 30.0353827,30.1927901 29.363358,31.2652593 C29.0179012,31.8159753 28.8487407,32.4363704 28.8319506,33.2183704 C28.8222963,33.678 28.8613333,34.1111852 28.9473827,34.5221235 L26.5472346,34.5221235 C26.6945679,33.8370864 26.6996049,33.1121728 26.5606667,32.3515802 C26.3205679,31.0318765 25.3005679,30.0685432 23.8326914,29.7734568 C22.8865679,29.5824691 21.9081235,29.7046173 20.924642,30.1327654 C20.1606914,30.4656296 19.3975802,30.4589136 18.5933333,30.1117778 C18.0875309,29.8943457 17.5632593,29.761284 16.9898765,29.7041975 C15.584963,29.567358 14.1829877,30.1919506 13.5101235,31.2648395 C13.1655062,31.8151358 12.9963457,32.4355309 12.9795556,33.2171111 C12.9694815,33.6767407 13.0085185,34.1099259 13.0945679,34.521284 L11.482716,34.521284 C11.2505926,34.521284 11.062963,34.7089136 11.062963,34.941037 C11.062963,35.1731605 11.2501728,35.3633086 11.4818765,35.3633086 Z M40.845284,35.9664938 C40.6114815,36.2901235 40.4540741,36.6368395 40.3017037,36.9722222 L40.2748395,37.0318272 C40.1862716,37.2270123 40.1950864,37.4255556 40.200963,37.5707901 L40.2030617,37.6354321 C40.2358025,39.1566173 40.1400988,40.3923704 39.9008395,41.525284 C39.7161481,42.4017284 38.9782222,44.0181975 38.4442963,44.3090864 C38.2885679,44.3678519 38.201679,44.3376296 38.1324198,44.2931358 C37.4721481,43.8603704 37.1380247,41.435037 37.112,39.8588642 C37.112,39.080642 36.4911852,38.4489136 35.7192593,38.4233086 C35.7108642,38.4228889 35.7037284,38.4186914 35.6953333,38.4186914 C35.6911358,38.4186914 35.687358,38.4199506 35.6835802,38.4199506 C35.6793827,38.4199506 35.6756049,38.4186914 35.6718272,38.4186914 C35.6634321,38.4186914 35.6562963,38.4228889 35.6479012,38.4233086 C34.8759753,38.4489136 34.2547407,39.080642 34.2547407,39.8525679 C34.2291358,41.4354568 33.8958519,43.8599506 33.234321,44.2935556 C33.1667407,44.3372099 33.0827901,44.3699506 32.9320988,44.314963 C32.5434074,44.075284 32.2596543,43.7365432 31.9884938,43.1900247 C31.670321,42.5482222 31.4596049,41.8237284 31.3437531,40.9749877 C31.2354568,40.1837531 31.1326173,37.9137284 31.1431111,37.594716 C31.1561235,37.2144198 31.061679,36.8542716 30.8614568,36.5256049 L30.7951358,36.4147901 C30.7120247,36.2741728 30.6255556,36.1289383 30.5172593,35.9858025 C30.3661481,35.7864198 30.2360247,35.5790617 30.1252099,35.3637284 L34.0612346,35.3637284 L34.0612346,36.1511852 C34.0612346,36.3833086 34.2488642,36.5709383 34.4809877,36.5709383 L36.8949877,36.5709383 C37.1271111,36.5709383 37.3147407,36.3833086 37.3147407,36.1511852 L37.3147407,35.3637284 L41.2096296,35.3637284 C41.1042716,35.5685679 40.9867407,35.7704691 40.845284,35.9664938 Z M34.9007407,35.7310123 L34.9007407,34.1565185 L36.4752346,34.1565185 L36.4752346,35.7310123 L34.9007407,35.7310123 Z M29.6701975,33.2380988 C29.6836296,32.6143457 29.8116543,32.1295309 30.0731605,31.7131358 C30.5722469,30.9164444 31.6761975,30.4358272 32.7579012,30.5420247 C33.2448148,30.5902963 33.6876543,30.7027901 34.1124444,30.884963 C35.1412593,31.3282222 36.1222222,31.3345185 37.1111605,30.9046914 C37.9452099,30.5411852 38.7330864,30.441284 39.5184444,30.5986914 C40.6366667,30.8232593 41.4094321,31.5351605 41.5861481,32.5043704 C41.7179506,33.2280247 41.696963,33.8966914 41.532,34.5242222 L37.3147407,34.5242222 L37.3147407,33.7371852 C37.3147407,33.5050617 37.1271111,33.3174321 36.8949877,33.3174321 L34.4809877,33.3174321 C34.2488642,33.3174321 34.0612346,33.5050617 34.0612346,33.7371852 L34.0612346,34.5242222 L29.8116543,34.5242222 C29.7096543,34.1229383 29.6605432,33.6968889 29.6701975,33.2380988 Z M24.9933086,35.9664938 C24.7595062,36.2901235 24.6020988,36.6368395 24.4497284,36.9722222 L24.4228642,37.0318272 C24.334716,37.2261728 24.3431111,37.4238765 24.3485679,37.5682716 L24.3506667,37.6354321 C24.3838272,39.1557778 24.2881235,40.3915309 24.0488642,41.5248642 C23.8637531,42.4017284 23.1254074,44.0186173 22.592321,44.3090864 C22.4365926,44.3678519 22.3497037,44.3376296 22.2804444,44.2931358 C21.6201728,43.8603704 21.2860494,41.435037 21.2600247,39.8588642 C21.2600247,39.080642 20.6387901,38.4484938 19.8664444,38.4233086 C19.8580494,38.4228889 19.8513333,38.4186914 19.8429383,38.4186914 C19.8387407,38.4186914 19.8353827,38.4199506 19.8311852,38.4199506 C19.8269877,38.4199506 19.8236296,38.4186914 19.8194321,38.4186914 C19.811037,38.4186914 19.804321,38.4228889 19.7959259,38.4233086 C19.0235802,38.4484938 18.4023457,39.080642 18.4023457,39.8525679 C18.3767407,41.4354568 18.0434568,43.8599506 17.3819259,44.2935556 C17.3139259,44.3372099 17.2308148,44.3699506 17.0797037,44.314963 C16.6910123,44.075284 16.4072593,43.7365432 16.1360988,43.1900247 C15.8183457,42.5494815 15.6072099,41.8245679 15.491358,40.9749877 C15.3830617,40.1837531 15.2802222,37.9137284 15.290716,37.594716 C15.3037284,37.2144198 15.209284,36.8542716 15.0090617,36.5256049 L14.9427407,36.4147901 C14.8596296,36.2741728 14.7731605,36.1289383 14.6648642,35.9858025 C14.5133333,35.7864198 14.3832099,35.5790617 14.2728148,35.3637284 L18.1920494,35.3637284 L18.1920494,36.1511852 C18.1920494,36.3833086 18.379679,36.5709383 18.6118025,36.5709383 L21.0262222,36.5709383 C21.2583457,36.5709383 21.4459753,36.3833086 21.4459753,36.1511852 L21.4459753,35.3637284 L25.3572346,35.3637284 C25.252716,35.5685679 25.1347654,35.7704691 24.9933086,35.9664938 Z M19.0323951,34.1565185 L20.6073086,34.1565185 L20.6073086,35.7310123 L19.0323951,35.7310123 L19.0323951,34.1565185 Z M13.818642,33.2380988 C13.8320741,32.6143457 13.959679,32.1295309 14.2207654,31.7131358 C14.7202716,30.9168642 15.8254815,30.4358272 16.9063457,30.5420247 C17.3924198,30.5902963 17.835679,30.7027901 18.2608889,30.884963 C19.2901235,31.3282222 20.2702469,31.3345185 21.2596049,30.9046914 C22.0936543,30.5411852 22.8815309,30.441284 23.6668889,30.5986914 C24.7851111,30.8232593 25.5578765,31.5351605 25.7345926,32.5043704 C25.8663951,33.2280247 25.8454074,33.8966914 25.6804444,34.5242222 L21.4468148,34.5242222 L21.4468148,33.7371852 C21.4468148,33.5050617 21.2591852,33.3174321 21.0270617,33.3174321 L18.612642,33.3174321 C18.3805185,33.3174321 18.1928889,33.5050617 18.1928889,33.7371852 L18.1928889,34.5242222 L13.959679,34.5242222 C13.8572593,34.1229383 13.8081481,33.6968889 13.818642,33.2380988 Z" id="Shape" stroke-width="0.6" fill="#AE8B77" fill-rule="nonzero"></path>
                <circle id="Oval-Copy-13" stroke-width="2" cx="28" cy="28" r="28"></circle>
            </g>
        </g>
    </g>
</svg>