<?xml version="1.0" encoding="UTF-8" standalone="no"?>
<svg width="58px" height="58px" viewBox="0 0 58 58" version="1.1" xmlns="http://www.w3.org/2000/svg" xmlns:xlink="http://www.w3.org/1999/xlink">
    <!-- Generator: Sketch 47.1 (45422) - http://www.bohemiancoding.com/sketch -->
    <title>root-canal</title>
    <desc>Created with Sketch.</desc>
    <defs></defs>
    <g id="Page-1" stroke="none" stroke-width="1" fill="none" fill-rule="evenodd">
        <g id="Mobile-Copy" transform="translate(-23.000000, -3470.000000)" stroke="#AE8B77">
            <g id="root-canal" transform="translate(24.000000, 3471.000000)">
                <path d="M16.6995469,27.499209 L16.8578768,27.7636493 C17.1674349,28.2724775 17.3082191,28.8038646 17.287749,29.3883069 C17.2610125,30.1807923 17.4945388,35.2953934 17.7426865,37.1105483 C18.0209128,39.1416837 18.5305766,40.8841489 19.3013386,42.4377878 C19.7922032,43.4270368 20.5391531,44.6719532 21.9712247,45.5266844 C21.9887705,45.5367106 22.0063163,45.546319 22.0246976,45.5534209 C22.3292426,45.680419 22.62961,45.7435004 22.920369,45.7435004 C23.3051233,45.7435004 23.6727497,45.632377 24.0094619,45.4118012 C25.1666493,44.6535719 26.0004926,42.5618617 26.4871797,39.1943211 C26.8401846,36.7521127 26.8802892,34.484109 26.880707,34.4544482 C26.880707,33.4459824 27.694498,32.6263428 28.6996218,32.6117213 C29.7047455,32.625925 30.5185365,33.4459824 30.5185365,34.4607146 C30.5335758,35.3989972 30.7428721,43.6764379 33.3897816,45.4113834 C33.7264938,45.6319592 34.0941202,45.7430826 34.4788745,45.7430826 C34.7696335,45.7430826 35.0700009,45.6800013 35.3745459,45.5530031 C35.379559,45.5509143 35.3824833,45.5467367 35.3874964,45.5442302 C35.3929272,45.5417237 35.3983581,45.5425592 35.4037889,45.5396349 C37.1897008,44.6305953 38.959738,40.3636235 39.3687223,38.4260657 C39.9201617,35.8138301 40.1419908,32.9760056 40.0667945,29.496506 L40.0609459,29.3243901 C40.052173,29.1075741 40.0429823,28.8832385 40.1064814,28.7437076 L40.1645497,28.6154562 C40.4749433,27.9307521 40.7961985,27.2226537 41.2356791,26.6135638 C43.0704686,24.0715114 43.7016997,21.1417803 43.1122443,17.906251 C42.6184553,15.1958424 40.5087816,13.2131668 37.4683449,12.6028236 C35.4756431,12.20303 33.4094162,12.4595329 31.3264789,13.3664837 C29.4958669,14.1639822 27.6727746,14.1497784 25.7515094,13.3226192 C24.6807977,12.8614153 23.5674748,12.5781759 22.3484594,12.4578619 C19.4174751,12.1675206 16.5115561,13.4617324 15.120007,15.6787697 C14.4064777,16.8163225 14.0572327,18.1088632 14.0217234,19.7464713 C13.9632374,22.4272191 14.6667405,24.6960583 16.1727551,26.6820759 C16.3653411,26.9364901 16.5274309,27.2097033 16.6995469,27.499209 Z M15.8276876,16.1228456 C17.0546405,14.1681597 19.6430639,13.0326957 22.2661612,13.2896164 C23.3982832,13.4015753 24.4301434,13.6635091 25.4210634,14.0904569 C27.5658288,15.0132825 29.6065726,15.0274863 31.6602669,14.1334859 C33.6103574,13.2846033 35.4572618,13.0510771 37.3041663,13.4228809 C39.9961935,13.9634587 41.8602261,15.6958977 42.290516,18.0574791 C42.8452975,21.1029289 42.2788188,23.7419009 40.5584947,26.1256234 C40.0701366,26.8019723 39.7313355,27.5489221 39.4038139,28.271642 L39.3461634,28.3986402 C39.2003661,28.7194777 39.2141521,29.0591143 39.2262671,29.3590639 L39.2316979,29.5153051 C39.3052232,32.9296345 39.0892427,35.7060487 38.5515892,38.2547852 C38.1672526,40.075371 36.5024903,44.0248474 35.0378336,44.787672 C34.5866559,44.9710674 34.2081679,44.9480907 33.8488967,44.7137289 C31.9192763,43.449178 31.3945733,36.8745155 31.3548864,34.454866 C31.3548864,33.0002355 30.1897616,31.8150584 28.743904,31.7774602 C28.7376377,31.7770425 28.7326246,31.7741182 28.7263582,31.7741182 C28.7175853,31.7741182 28.7092302,31.7753714 28.7004573,31.7753714 C28.6916844,31.7753714 28.6833292,31.7741182 28.6745563,31.7741182 C28.66829,31.7741182 28.6632769,31.7774602 28.6570105,31.7774602 C27.2115707,31.8150584 26.0460282,33.0002355 26.0460282,34.4477641 C26.006759,36.8745155 25.4816382,43.4487602 23.5520178,44.7133112 C23.1960887,44.9464197 22.8209428,44.9719029 22.3739426,44.7931028 C21.1457365,44.0499128 20.4873512,42.9466161 20.0507949,42.0664017 C19.3205554,40.5954787 18.8367926,38.9374005 18.571099,36.9969184 C18.3292176,35.2298055 18.0990334,30.1344213 18.1232633,29.4162967 C18.1487465,28.6747777 17.9632623,27.9725279 17.5722416,27.3291818 L17.4180892,27.0722612 C17.2417957,26.7756536 17.0596536,26.4690198 16.83866,26.1770075 C15.4512884,24.3472311 14.8029293,22.2500901 14.8572377,19.7644349 C14.8889873,18.284739 15.1977098,17.1271338 15.8276876,16.1228456 Z" id="Shape" stroke-width="0.800000012" fill="#AE8B77" fill-rule="nonzero"></path>
                <path d="M30.9397223,14.4598606 C30.5661395,15.6348259 30.364557,16.8864555 30.364557,18.1851673 C30.364557,23.9901725 33.9770906,31.1547301 39.3902322,32.4365992" id="Oval-2" stroke-width="1.60000002" stroke-linecap="round" stroke-dasharray="1,2"></path>
                <circle id="Oval-Copy-6" stroke-width="2" cx="28" cy="28" r="28"></circle>
            </g>
        </g>
    </g>
</svg>