<?xml version="1.0" encoding="UTF-8" standalone="no"?>
<svg width="58px" height="58px" viewBox="0 0 58 58" version="1.1" xmlns="http://www.w3.org/2000/svg" xmlns:xlink="http://www.w3.org/1999/xlink">
    <!-- Generator: Sketch 47.1 (45422) - http://www.bohemiancoding.com/sketch -->
    <title>whitening</title>
    <desc>Created with Sketch.</desc>
    <defs></defs>
    <g id="Page-1" stroke="none" stroke-width="1" fill="none" fill-rule="evenodd">
        <g id="Mobile-Copy" transform="translate(-23.000000, -3816.000000)" stroke="#AE8B77">
            <g id="whitening" transform="translate(24.000000, 3817.000000)">
                <path d="M45.4144444,35.1768148 L44.5883704,34.7251605 C43.8344938,34.3125432 43.2178765,33.6963457 42.8060988,32.9428889 L42.3544444,32.1168148 C42.2071111,31.8469136 41.7651111,31.8469136 41.6177778,32.1168148 L41.1661235,32.9428889 C40.940716,33.3555062 40.6489877,33.7215309 40.3119259,34.040963 C40.3757284,32.8522222 40.395037,31.5933827 40.3648148,30.2077778 L40.3589383,30.0348395 C40.3501235,29.8169877 40.3408889,29.5915802 40.4046914,29.4513827 L40.463037,29.3225185 C40.7749136,28.6345432 41.0977037,27.9230617 41.539284,27.3110617 C43.3828395,24.7568642 44.0170864,21.8131358 43.4248148,18.5621481 C42.9286667,15.8387901 40.8089136,13.846642 37.7539506,13.2333827 C35.7521481,12.831679 33.6756296,13.0898272 31.5827407,14.0006914 C29.7438025,14.802 27.9115802,14.7877284 25.9811358,13.9566173 C24.9053086,13.4932099 23.7866667,13.2086173 22.5618272,13.0877284 C19.6168395,12.7947407 16.697037,14.0963951 15.2988395,16.3240247 C14.5819012,17.4670123 14.2309877,18.7657284 14.1953086,20.4111605 C14.1365432,23.104716 14.8434074,25.3843951 16.3566173,27.3799012 C16.5501235,27.6351111 16.7134074,27.9100494 16.8863457,28.2005185 L17.0454321,28.4662222 C17.3564691,28.9774815 17.4979259,29.5114074 17.477358,30.098642 C17.4504938,30.8949136 17.6851358,36.0339506 17.9344691,37.8577778 C18.2140247,39.8986173 18.7261235,41.6494074 19.5005679,43.2104691 C19.9937778,44.2044444 20.7442963,45.4553086 22.1832099,46.3141235 C22.2008395,46.3241975 22.2184691,46.3338519 22.2369383,46.3409877 C22.5429383,46.4685926 22.8447407,46.5319753 23.1368889,46.5319753 C23.5234815,46.5319753 23.8928642,46.420321 24.2311852,46.1986914 C25.3939012,45.4368395 26.2317284,43.3351358 26.7207407,39.9515062 C27.0754321,37.4976296 27.1157284,35.2187901 27.1161481,35.1889877 C27.1161481,34.1664691 27.947679,33.3349383 28.9701975,33.3349383 C29.9297531,33.3349383 30.7717778,34.2013086 30.7717778,35.1957037 C30.7868889,36.1384691 30.9971852,44.4554568 33.6567407,46.1986914 C33.9950617,46.420321 34.3644444,46.5319753 34.751037,46.5319753 C35.0431852,46.5319753 35.3449877,46.4685926 35.6509877,46.3409877 C35.6539259,46.3397284 35.6560247,46.3367901 35.658963,46.3355309 C35.665679,46.3325926 35.6732346,46.3313333 35.6799506,46.3279753 C37.4743951,45.4145926 39.2528889,41.1272346 39.6638272,39.1808395 C39.8233333,38.4261235 39.949679,37.6327901 40.0554568,36.8264444 C40.5045926,37.1912099 40.8857284,37.6340494 41.166963,38.1474074 L41.6186173,38.9734815 C41.6920741,39.1082222 41.8335309,39.1921728 41.9867407,39.1921728 C42.1399506,39.1921728 42.2814074,39.108642 42.3548642,38.9734815 L42.8065185,38.1474074 C43.218716,37.3935309 43.8353333,36.7769136 44.5887901,36.3651358 L45.4148642,35.9134815 C45.5496049,35.8400247 45.6331358,35.6985679 45.6331358,35.545358 C45.6331358,35.3921481 45.5491852,35.2502716 45.4144444,35.1768148 Z M35.3109877,45.5711605 C34.8572346,45.7554321 34.4769383,45.7323457 34.1163704,45.4968642 C32.1775309,44.2262716 31.650321,37.6201975 31.6104444,35.1889877 C31.6104444,33.7286667 30.4011358,32.4954321 28.969358,32.4954321 C27.4842716,32.4954321 26.2758025,33.7039012 26.2758025,35.1818519 C26.2363457,37.6201975 25.708716,44.2258519 23.7698765,45.4964444 C23.4122469,45.7306667 23.0353086,45.7562716 22.5861728,45.5766173 C21.3520988,44.8298765 20.6905679,43.7213086 20.2519259,42.8368889 C19.5181975,41.3589383 19.0321235,39.6929383 18.7651605,37.7431852 C18.5221235,35.9676296 18.2908395,30.8479012 18.3151852,30.1263457 C18.3407901,29.381284 18.1544198,28.675679 17.7615309,28.0292593 L17.606642,27.7711111 C17.4295062,27.4730864 17.2464938,27.1649877 17.0244444,26.8715802 C15.6304444,25.0330617 14.9789877,22.9259012 15.0335556,20.4283704 C15.0658765,18.9411852 15.3756543,17.7784691 16.0090617,16.768963 C17.2418765,14.8049383 19.8422469,13.6632099 22.4782963,13.9221975 C23.6158272,14.0346914 24.6526173,14.2978765 25.6482716,14.7268642 C27.803284,15.6540988 29.8537778,15.6683704 31.917284,14.7700988 C33.8771111,13.9167407 35.732,13.6825185 37.5881481,14.0560988 C40.293037,14.5992593 42.1659753,16.3399753 42.598321,18.7128395 C43.1557531,21.7728395 42.5865679,24.4244198 40.8580247,26.8195309 C40.3673333,27.4991111 40.0269136,28.2496296 39.6978272,28.9758025 L39.6399012,29.1034074 C39.4934074,29.4261975 39.5072593,29.7674568 39.5194321,30.0688395 L39.5248889,30.2254074 C39.5605679,31.8641235 39.5295062,33.3257037 39.431284,34.693679 C39.4144938,34.7029136 39.4002222,34.7155062 39.3834321,34.7247407 L38.557358,35.1763951 C38.4226173,35.2498519 38.3390864,35.3913086 38.3390864,35.5445185 C38.3390864,35.6977284 38.4226173,35.8391852 38.557358,35.912642 L39.2784938,36.3072099 C39.1689383,37.2365432 39.023284,38.1448889 38.8411111,39.006642 C38.455358,40.8363457 36.7830617,44.8051111 35.3109877,45.5711605 Z M44.1858272,35.6280494 C43.2909136,36.1174815 42.559284,36.8491111 42.0694321,37.7444444 L41.9859012,37.8968148 L41.9023704,37.7444444 C41.4125185,36.8491111 40.6808889,36.1174815 39.7863951,35.6284691 L39.6336049,35.5449383 L39.7863951,35.4614074 C40.6813086,34.9719753 41.4129383,34.2403457 41.9023704,33.3454321 L41.9859012,33.1930617 L42.0694321,33.3454321 C42.5588642,34.2403457 43.2904938,34.9719753 44.1854074,35.4614074 L44.3381975,35.5449383 L44.1858272,35.6280494 Z" id="Shape" stroke-width="0.800000012" fill="#AE8B77" fill-rule="nonzero"></path>
                <circle id="Oval-Copy-7" stroke-width="2" cx="28" cy="28" r="28"></circle>
                <path d="M36.546321,16.7290864 C38.3403457,17.0892346 39.5819753,18.2397778 39.8674074,19.806716 C40.2418272,21.8618272 39.8598519,23.6415802 38.7004938,25.2483951 C38.5649136,25.4360247 38.6073086,25.6983704 38.795358,25.8343704 C38.8696543,25.8880988 38.9557037,25.9137037 39.0404938,25.9137037 C39.171037,25.9137037 39.2990617,25.8532593 39.3813333,25.7395062 C40.663679,23.9631111 41.1048395,21.9163951 40.6934815,19.6564444 C40.3442469,17.7385926 38.8558025,16.3366173 36.7117037,15.9059506 C36.485037,15.8580988 36.2629877,16.0075309 36.2176543,16.2346173 C36.1714815,16.4621235 36.3188148,16.6833333 36.546321,16.7290864 Z" id="Shape" stroke-width="0.6" fill="#AE8B77" fill-rule="nonzero"></path>
                <path d="M14.417358,34.726 C14.5709877,34.726 14.7120247,34.6424691 14.7854815,34.5073086 L15.0507654,34.0224938 C15.2770123,33.6094568 15.6149136,33.2711358 16.0283704,33.0448889 L16.5131852,32.7796049 C16.6479259,32.7061481 16.7314568,32.5646914 16.7314568,32.4114815 C16.7314568,32.2582716 16.6479259,32.1168148 16.5131852,32.043358 L16.0283704,31.7776543 C15.6153333,31.5522469 15.2774321,31.2139259 15.0511852,30.8008889 L14.7859012,30.3160741 C14.6385679,30.0461728 14.1965679,30.0461728 14.0492346,30.3160741 L13.7839506,30.8008889 C13.5577037,31.2139259 13.2198025,31.5518272 12.8063457,31.7780741 L12.3215309,32.043358 C12.1867901,32.1168148 12.1032593,32.2582716 12.1032593,32.4114815 C12.1032593,32.5646914 12.1867901,32.7061481 12.3215309,32.7796049 L12.8063457,33.0448889 C13.2198025,33.2711358 13.5581235,33.6094568 13.7839506,34.0224938 L14.0492346,34.5073086 C14.1226914,34.6424691 14.2637284,34.726 14.417358,34.726 Z M13.3843457,32.4114815 C13.802,32.148716 14.1541728,31.7965432 14.4169383,31.3788889 C14.6797037,31.796963 15.0322963,32.148716 15.4495309,32.4114815 C15.0318765,32.6746667 14.6801235,33.0268395 14.4169383,33.4444938 C14.1541728,33.0268395 13.802,32.6746667 13.3843457,32.4114815 Z" id="Shape" stroke-width="0.6" fill="#AE8B77" fill-rule="nonzero"></path>
                <path d="M35.7584444,24.8487901 C35.7584444,24.6955802 35.6749136,24.5541235 35.5401728,24.4806667 L34.984,24.1763457 C34.4996049,23.9114815 34.1037778,23.5152346 33.8384938,23.0308395 L33.5341728,22.4746667 C33.3868395,22.2047654 32.9448395,22.2047654 32.7975062,22.4746667 L32.4931852,23.0308395 C32.228321,23.5148148 31.8320741,23.9110617 31.347679,24.1763457 L30.7915062,24.4806667 C30.6571852,24.5541235 30.5732346,24.6955802 30.5732346,24.8487901 C30.5732346,25.002 30.6571852,25.1434568 30.7915062,25.2169136 L31.347679,25.5212346 C31.8320741,25.7865185 32.228321,26.1823457 32.4931852,26.6667407 L32.7975062,27.2224938 C32.8713827,27.3568148 33.0124198,27.4407654 33.1656296,27.4407654 C33.3188395,27.4407654 33.4602963,27.3572346 33.5337531,27.2224938 L33.8380741,26.666321 C34.1029383,26.1823457 34.4991852,25.785679 34.9835802,25.5208148 L35.5397531,25.2164938 C35.6749136,25.1434568 35.7584444,25.002 35.7584444,24.8487901 Z M33.1664691,26.1508642 C32.8478765,25.614 32.4012593,25.166963 31.8639753,24.8483704 C32.4012593,24.5297778 32.8478765,24.0835802 33.1664691,23.5458765 C33.4850617,24.0831605 33.931679,24.5297778 34.468963,24.8483704 C33.931679,25.166963 33.4850617,25.6135802 33.1664691,26.1508642 Z" id="Shape" stroke-width="0.6" fill="#AE8B77" fill-rule="nonzero"></path>
                <path d="M16.358716,38.2678765 L15.808,38.2678765 L15.808,37.7171605 C15.808,37.485037 15.6199506,37.2974074 15.3882469,37.2974074 C15.1565432,37.2974074 14.9684938,37.485037 14.9684938,37.7171605 L14.9684938,38.2678765 L14.4177778,38.2678765 C14.1860741,38.2678765 13.9980247,38.4555062 13.9980247,38.6876296 C13.9980247,38.9197531 14.1860741,39.1073827 14.4177778,39.1073827 L14.9684938,39.1073827 L14.9684938,39.6580988 C14.9684938,39.8902222 15.1565432,40.0778519 15.3882469,40.0778519 C15.6199506,40.0778519 15.808,39.8902222 15.808,39.6580988 L15.808,39.1073827 L16.358716,39.1073827 C16.5904198,39.1073827 16.7784691,38.9197531 16.7784691,38.6876296 C16.7784691,38.4555062 16.5904198,38.2678765 16.358716,38.2678765 Z" id="Shape" stroke-width="0.6" fill="#AE8B77" fill-rule="nonzero"></path>
                <path d="M37.5994815,28.849037 L37.0487654,28.849037 L37.0487654,28.298321 C37.0487654,28.0661975 36.860716,27.8785679 36.6290123,27.8785679 C36.3973086,27.8785679 36.2092593,28.0661975 36.2092593,28.298321 L36.2092593,28.849037 L35.6585432,28.849037 C35.4268395,28.849037 35.2387901,29.0366667 35.2387901,29.2687901 C35.2387901,29.5009136 35.4268395,29.6885432 35.6585432,29.6885432 L36.2092593,29.6885432 L36.2092593,30.2392593 C36.2092593,30.4713827 36.3973086,30.6590123 36.6290123,30.6590123 C36.860716,30.6590123 37.0487654,30.4713827 37.0487654,30.2392593 L37.0487654,29.6885432 L37.5994815,29.6885432 C37.8311852,29.6885432 38.0192346,29.5009136 38.0192346,29.2687901 C38.0192346,29.0366667 37.8311852,28.849037 37.5994815,28.849037 Z" id="Shape" stroke-width="0.6" fill="#AE8B77" fill-rule="nonzero"></path>
                <path d="M44.5778765,40.7037037 L44.0271605,40.7037037 L44.0271605,40.1529877 C44.0271605,39.9208642 43.8391111,39.7332346 43.6074074,39.7332346 C43.3757037,39.7332346 43.1876543,39.9208642 43.1876543,40.1529877 L43.1876543,40.7037037 L42.6369383,40.7037037 C42.4052346,40.7037037 42.2171852,40.8913333 42.2171852,41.1234568 C42.2171852,41.3555802 42.4052346,41.5432099 42.6369383,41.5432099 L43.1876543,41.5432099 L43.1876543,42.0939259 C43.1876543,42.3260494 43.3757037,42.513679 43.6074074,42.513679 C43.8391111,42.513679 44.0271605,42.3260494 44.0271605,42.0939259 L44.0271605,41.5432099 L44.5778765,41.5432099 C44.8095802,41.5432099 44.9976296,41.3555802 44.9976296,41.1234568 C44.9976296,40.8913333 44.8095802,40.7037037 44.5778765,40.7037037 Z" id="Shape" stroke-width="0.6" fill="#AE8B77" fill-rule="nonzero"></path>
            </g>
        </g>
    </g>
</svg>