<?xml version="1.0" encoding="UTF-8" standalone="no"?>
<svg width="58px" height="58px" viewBox="0 0 58 58" version="1.1" xmlns="http://www.w3.org/2000/svg" xmlns:xlink="http://www.w3.org/1999/xlink">
    <!-- Generator: Sketch 47.1 (45422) - http://www.bohemiancoding.com/sketch -->
    <title>wisdom-teeth</title>
    <desc>Created with Sketch.</desc>
    <defs></defs>
    <g id="Page-1" stroke="none" stroke-width="1" fill="none" fill-rule="evenodd">
        <g id="Mobile-Copy" transform="translate(-23.000000, -4892.000000)" stroke="#AE8B77">
            <g id="wisdom-teeth" transform="translate(24.000000, 4893.000000)">
                <path d="M16.7565352,23.2583661 L16.7565352,43.5560446 C16.7565352,44.6443132 17.6380704,45.5299296 18.7213239,45.5299296 C19.8045775,45.5299296 20.6861127,44.6443132 20.6861127,43.5560446 L20.6861127,23.2583661 C23.3302817,22.4183683 25.2531549,19.9317119 25.2531549,17.0007121 C25.2531549,13.3823616 22.323,10.4386411 18.7213239,10.4386411 C15.1196479,10.4386411 12.189493,13.3823616 12.189493,17.0007121 C12.189493,19.9312733 14.1123662,22.4183683 16.7565352,23.2583661 Z M19.8128732,43.5560446 C19.8128732,44.1609307 19.3229859,44.6526474 18.7213239,44.6526474 C18.119662,44.6526474 17.6297746,44.1609307 17.6297746,43.5560446 L17.6297746,23.4636501 C17.9856197,23.5241826 18.3484507,23.562783 18.7213239,23.562783 C19.0941972,23.562783 19.4570282,23.5241826 19.8128732,23.4636501 L19.8128732,43.5560446 Z M18.7213239,11.3159233 C21.8414085,11.3159233 24.3799155,13.8657441 24.3799155,17.0007121 C24.3799155,20.13568 21.8414085,22.6855008 18.7213239,22.6855008 C15.6012394,22.6855008 13.0627324,20.13568 13.0627324,17.0007121 C13.0627324,13.8657441 15.6012394,11.3159233 18.7213239,11.3159233 Z" id="Shape" stroke-width="0.599999964" fill="#AE8B77" fill-rule="nonzero"></path>
                <path d="M16.8307606,20.7497776 C16.9159014,20.8353126 17.0276761,20.8782994 17.1394507,20.8782994 C17.2512254,20.8782994 17.363,20.8353126 17.4481408,20.7497776 C17.6188592,20.5782689 17.6188592,20.3010477 17.4481408,20.1295391 L15.8086338,18.4820031 C15.6379155,18.3104944 15.3619718,18.3104944 15.1912535,18.4820031 C15.0205352,18.6535117 15.0205352,18.9307329 15.1912535,19.1022416 L16.8307606,20.7497776 Z" id="Shape" stroke-width="0.599999964" fill="#AE8B77" fill-rule="nonzero"></path>
                <path d="M19.1212676,20.7300387 C19.2064085,20.8155737 19.3181831,20.8585606 19.4299577,20.8585606 C19.5417324,20.8585606 19.653507,20.8155737 19.7386479,20.7300387 C19.9093662,20.5585301 19.9093662,20.2813089 19.7386479,20.1098002 L15.9160423,16.2694973 C15.7453239,16.0979887 15.4693803,16.0979887 15.298662,16.2694973 C15.1279437,16.441006 15.1279437,16.7182272 15.298662,16.8897359 L19.1212676,20.7300387 Z" id="Shape" stroke-width="0.599999964" fill="#AE8B77" fill-rule="nonzero"></path>
                <path d="M29.8437746,38.2138346 C28.3963803,38.2138346 27.2183803,39.3968496 27.2183803,40.8513835 C27.2183803,42.3059174 28.3959437,43.4889325 29.8437746,43.4889325 C31.2916056,43.4889325 32.469169,42.3059174 32.469169,40.8513835 C32.469169,39.3968496 31.2916056,38.2138346 29.8437746,38.2138346 Z M29.8437746,42.6116503 C28.8779718,42.6116503 28.0916197,41.8220963 28.0916197,40.8513835 C28.0916197,39.8806708 28.8775352,39.0911168 29.8437746,39.0911168 C30.8100141,39.0911168 31.5959296,39.8806708 31.5959296,40.8513835 C31.5959296,41.8220963 30.8100141,42.6116503 29.8437746,42.6116503 Z" id="Shape" stroke-width="0.599999964" fill="#AE8B77" fill-rule="nonzero"></path>
                <path d="M38.2919296,38.2138346 C36.8440986,38.2138346 35.6665352,39.3968496 35.6665352,40.8513835 C35.6665352,42.3059174 36.8440986,43.4889325 38.2919296,43.4889325 C39.7393239,43.4889325 40.9173239,42.3059174 40.9173239,40.8513835 C40.9173239,39.3968496 39.7393239,38.2138346 38.2919296,38.2138346 Z M38.2919296,42.6116503 C37.3256901,42.6116503 36.5397746,41.8220963 36.5397746,40.8513835 C36.5397746,39.8806708 37.3256901,39.0911168 38.2919296,39.0911168 C39.2577324,39.0911168 40.0440845,39.8806708 40.0440845,40.8513835 C40.0440845,41.8220963 39.2577324,42.6116503 38.2919296,42.6116503 Z" id="Shape" stroke-width="0.599999964" fill="#AE8B77" fill-rule="nonzero"></path>
                <path d="M38.4159296,36.1741534 L38.4159296,28.1623736 L41.1976338,25.2822561 C41.276662,25.2002302 41.3207606,25.09057 41.3207606,24.9769619 L41.3207606,10.8772822 C41.3207606,10.7000712 41.2142254,10.5395286 41.0513662,10.4719778 C40.8876338,10.4031112 40.7007606,10.441273 40.5754507,10.5671629 L37.4924789,13.6648464 C37.4103944,13.747311 37.3645493,13.8582872 37.3645493,13.9749657 L37.3645493,23.6987617 L34.0693803,27.0091862 L30.7742113,23.6987617 L30.7742113,13.9749657 C30.7742113,13.8582872 30.7283662,13.7468723 30.6462817,13.6648464 L27.5628732,10.5671629 C27.4375634,10.441273 27.2502535,10.4031112 27.0869577,10.4719778 C26.923662,10.5395286 26.8175634,10.7000712 26.8175634,10.8772822 L26.8175634,24.9769619 C26.8175634,25.0339853 26.8293521,25.0910086 26.8511831,25.1445228 C26.8734507,25.1984757 26.9053239,25.2467262 26.9459296,25.2875198 L29.7625634,28.1171936 L29.7625634,36.1732761 C27.2319155,36.2171403 25.1863521,38.2989309 25.1863521,40.8513835 C25.1863521,43.4314705 27.2755775,45.5303682 29.8437746,45.5303682 C31.7151268,45.5303682 33.328,44.4131493 34.0676338,42.8099161 C34.8072676,44.4131493 36.4201408,45.5303682 38.291493,45.5303682 C40.8596901,45.5303682 42.9489155,43.4314705 42.9489155,40.8513835 C42.9493521,38.3129675 40.9269296,36.2403882 38.4159296,36.1741534 Z M29.8437746,44.653086 C27.757169,44.653086 26.0595915,42.9476494 26.0595915,40.8513835 C26.0595915,38.7551177 27.757169,37.0496811 29.8437746,37.0496811 L30.1991831,37.0496811 C30.4401972,37.0496811 30.6358028,36.8536085 30.6358028,36.61104 L30.6358028,27.9355962 C30.6358028,27.8189176 30.5899577,27.7075028 30.5078732,27.6254769 L27.6908028,24.7953645 L27.6908028,11.9361618 L29.9009718,14.1565631 L29.9009718,23.8807978 C29.9009718,23.9974763 29.9468169,24.1088912 30.0289014,24.1909171 L33.634507,27.8132153 L33.6283944,40.8518222 C33.6279577,42.9476494 31.9303803,44.653086 29.8437746,44.653086 Z M38.2919296,44.653086 C36.2053239,44.653086 34.5077465,42.9476494 34.5077465,40.8513835 C34.5077465,40.8399789 34.5020704,40.8307674 34.5011972,40.8198014 L34.5073099,27.8101448 L38.1098592,24.1909171 C38.1919437,24.1084525 38.2377887,23.9974763 38.2377887,23.8807978 L38.2377887,14.1565631 L40.4475211,11.9361618 L40.4475211,24.7988736 L37.6658169,27.6789911 C37.5867887,27.761017 37.5426901,27.8706773 37.5426901,27.9842853 L37.5426901,36.6106013 C37.5426901,36.8531699 37.7382958,37.0492424 37.9793099,37.0492424 L38.2919296,37.0492424 C40.3785352,37.0492424 42.0761127,38.7546791 42.0761127,40.8509449 C42.0761127,42.9472107 40.3785352,44.653086 38.2919296,44.653086 Z" id="Shape" stroke-width="0.599999964" fill="#AE8B77" fill-rule="nonzero"></path>
                <circle id="Oval-Copy-11" stroke-width="2" cx="28" cy="28" r="28"></circle>
            </g>
        </g>
    </g>
</svg>